<svg viewBox="0 0 330 200" xmlns="http://www.w3.org/2000/svg"><g><g><g><g><g><line x1="50" y1="178" x2="45" y2="178" style="visibility: inherit;" fill="rgb(0, 0, 0)" stroke="rgb(204, 204, 204)" stroke-width="1px"></line><line x1="50" y1="163.16666666666666" x2="45" y2="163.16666666666666" style="visibility: inherit;" fill="rgb(0, 0, 0)" stroke="rgb(204, 204, 204)" stroke-width="1px"></line><line x1="50" y1="148.33333333333334" x2="45" y2="148.33333333333334" style="visibility: inherit;" fill="rgb(0, 0, 0)" stroke="rgb(204, 204, 204)" stroke-width="1px"></line><line x1="50" y1="133.5" x2="45" y2="133.5" style="visibility: inherit;" fill="rgb(0, 0, 0)" stroke="rgb(204, 204, 204)" stroke-width="1px"></line><line x1="50" y1="118.66666666666667" x2="45" y2="118.66666666666667" style="visibility: inherit;" fill="rgb(0, 0, 0)" stroke="rgb(204, 204, 204)" stroke-width="1px"></line><line x1="50" y1="103.83333333333334" x2="45" y2="103.83333333333334" style="visibility: inherit;" fill="rgb(0, 0, 0)" stroke="rgb(204, 204, 204)" stroke-width="1px"></line><line x1="50" y1="89.00000000000001" x2="45" y2="89.00000000000001" style="visibility: inherit;" fill="rgb(0, 0, 0)" stroke="rgb(204, 204, 204)" stroke-width="1px"></line><line x1="50" y1="74.16666666666669" x2="45" y2="74.16666666666669" style="visibility: inherit;" fill="rgb(0, 0, 0)" stroke="rgb(204, 204, 204)" stroke-width="1px"></line><line x1="50" y1="59.33333333333336" x2="45" y2="59.33333333333336" style="visibility: inherit;" fill="rgb(0, 0, 0)" stroke="rgb(204, 204, 204)" stroke-width="1px"></line><line x1="50" y1="44.50000000000003" x2="45" y2="44.50000000000003" style="visibility: inherit;" fill="rgb(0, 0, 0)" stroke="rgb(204, 204, 204)" stroke-width="1px"></line><line x1="50" y1="29.666666666666686" x2="45" y2="29.666666666666686" style="visibility: inherit;" fill="rgb(0, 0, 0)" stroke="rgb(204, 204, 204)" stroke-width="1px"></line><line x1="50" y1="14.833333333333343" x2="45" y2="14.833333333333343" style="visibility: inherit;" fill="rgb(0, 0, 0)" stroke="rgb(204, 204, 204)" stroke-width="1px"></line><line x1="50" y1="0" x2="45" y2="0" style="visibility: inherit;" fill="rgb(0, 0, 0)" stroke="rgb(204, 204, 204)" stroke-width="1px"></line></g><g transform="translate(40, 0)"><text x="0" y="178" dx="0em" dy="0.3em" style="text-anchor: end; visibility: hidden; font-family: &quot;Helvetica Neue&quot;, sans-serif; font-size: 12px; font-weight: 200;" fill="rgb(50, 49, 63)" stroke="none" stroke-width="1px">-0.1</text><text x="0" y="163.16666666666666" dx="0em" dy="0.3em" style="text-anchor: end; visibility: inherit; font-family: &quot;Helvetica Neue&quot;, sans-serif; font-size: 12px; font-weight: 200;" fill="rgb(50, 49, 63)" stroke="none" stroke-width="1px">0</text><text x="0" y="148.33333333333334" dx="0em" dy="0.3em" style="text-anchor: end; visibility: hidden; font-family: &quot;Helvetica Neue&quot;, sans-serif; font-size: 12px; font-weight: 200;" fill="rgb(50, 49, 63)" stroke="none" stroke-width="1px">0.1</text><text x="0" y="133.5" dx="0em" dy="0.3em" style="text-anchor: end; visibility: inherit; font-family: &quot;Helvetica Neue&quot;, sans-serif; font-size: 12px; font-weight: 200;" fill="rgb(50, 49, 63)" stroke="none" stroke-width="1px">0.2</text><text x="0" y="118.66666666666667" dx="0em" dy="0.3em" style="text-anchor: end; visibility: hidden; font-family: &quot;Helvetica Neue&quot;, sans-serif; font-size: 12px; font-weight: 200;" fill="rgb(50, 49, 63)" stroke="none" stroke-width="1px">0.3</text><text x="0" y="103.83333333333334" dx="0em" dy="0.3em" style="text-anchor: end; visibility: inherit; font-family: &quot;Helvetica Neue&quot;, sans-serif; font-size: 12px; font-weight: 200;" fill="rgb(50, 49, 63)" stroke="none" stroke-width="1px">0.4</text><text x="0" y="89.00000000000001" dx="0em" dy="0.3em" style="text-anchor: end; visibility: hidden; font-family: &quot;Helvetica Neue&quot;, sans-serif; font-size: 12px; font-weight: 200;" fill="rgb(50, 49, 63)" stroke="none" stroke-width="1px">0.5</text><text x="0" y="74.16666666666669" dx="0em" dy="0.3em" style="text-anchor: end; visibility: inherit; font-family: &quot;Helvetica Neue&quot;, sans-serif; font-size: 12px; font-weight: 200;" fill="rgb(50, 49, 63)" stroke="none" stroke-width="1px">0.6</text><text x="0" y="59.33333333333336" dx="0em" dy="0.3em" style="text-anchor: end; visibility: hidden; font-family: &quot;Helvetica Neue&quot;, sans-serif; font-size: 12px; font-weight: 200;" fill="rgb(50, 49, 63)" stroke="none" stroke-width="1px">0.7</text><text x="0" y="44.50000000000003" dx="0em" dy="0.3em" style="text-anchor: end; visibility: inherit; font-family: &quot;Helvetica Neue&quot;, sans-serif; font-size: 12px; font-weight: 200;" fill="rgb(50, 49, 63)" stroke="none" stroke-width="1px">0.8</text><text x="0" y="29.666666666666686" dx="0em" dy="0.3em" style="text-anchor: end; visibility: hidden; font-family: &quot;Helvetica Neue&quot;, sans-serif; font-size: 12px; font-weight: 200;" fill="rgb(50, 49, 63)" stroke="none" stroke-width="1px">0.9</text><text x="0" y="14.833333333333343" dx="0em" dy="0.3em" style="text-anchor: end; visibility: inherit; font-family: &quot;Helvetica Neue&quot;, sans-serif; font-size: 12px; font-weight: 200;" fill="rgb(50, 49, 63)" stroke="none" stroke-width="1px">1</text><text x="0" y="0" dx="0em" dy="0.3em" style="text-anchor: end; visibility: hidden; font-family: &quot;Helvetica Neue&quot;, sans-serif; font-size: 12px; font-weight: 200;" fill="rgb(50, 49, 63)" stroke="none" stroke-width="1px">1.1</text></g><line x1="50" y1="0" x2="50" y2="178" fill="rgb(0, 0, 0)" stroke="rgb(204, 204, 204)" stroke-width="1px"></line></g></g><g transform="translate(50, 0)" clip-path="url(#clip_0)"><clipPath id="clip_0"><rect width="280" height="178"></rect></clipPath><g><g><g><line x1="0" y1="0" x2="0" y2="178" fill="rgb(0, 0, 0)" stroke="rgb(60, 60, 60)" stroke-width="1px" opacity="0.25"></line><line x1="25.454545454545457" y1="0" x2="25.454545454545457" y2="178" fill="rgb(0, 0, 0)" stroke="rgb(60, 60, 60)" stroke-width="1px" opacity="0.25"></line><line x1="50.909090909090914" y1="0" x2="50.909090909090914" y2="178" fill="rgb(0, 0, 0)" stroke="rgb(60, 60, 60)" stroke-width="1px" opacity="0.25"></line><line x1="76.36363636363636" y1="0" x2="76.36363636363636" y2="178" fill="rgb(0, 0, 0)" stroke="rgb(60, 60, 60)" stroke-width="1px" opacity="0.25"></line><line x1="101.81818181818183" y1="0" x2="101.81818181818183" y2="178" fill="rgb(0, 0, 0)" stroke="rgb(60, 60, 60)" stroke-width="1px" opacity="0.25"></line><line x1="127.27272727272727" y1="0" x2="127.27272727272727" y2="178" fill="rgb(0, 0, 0)" stroke="rgb(60, 60, 60)" stroke-width="1px" opacity="0.25"></line><line x1="152.72727272727272" y1="0" x2="152.72727272727272" y2="178" fill="rgb(0, 0, 0)" stroke="rgb(60, 60, 60)" stroke-width="1px" opacity="0.25"></line><line x1="178.1818181818182" y1="0" x2="178.1818181818182" y2="178" fill="rgb(0, 0, 0)" stroke="rgb(60, 60, 60)" stroke-width="1px" opacity="0.25"></line><line x1="203.63636363636365" y1="0" x2="203.63636363636365" y2="178" fill="rgb(0, 0, 0)" stroke="rgb(60, 60, 60)" stroke-width="1px" opacity="0.25"></line><line x1="229.0909090909091" y1="0" x2="229.0909090909091" y2="178" fill="rgb(0, 0, 0)" stroke="rgb(60, 60, 60)" stroke-width="1px" opacity="0.25"></line><line x1="254.54545454545453" y1="0" x2="254.54545454545453" y2="178" fill="rgb(0, 0, 0)" stroke="rgb(60, 60, 60)" stroke-width="1px" opacity="0.25"></line><line x1="280" y1="0" x2="280" y2="178" fill="rgb(0, 0, 0)" stroke="rgb(60, 60, 60)" stroke-width="1px" opacity="0.25"></line></g><g><line x1="0" y1="178" x2="280" y2="178" fill="rgb(0, 0, 0)" stroke="rgb(60, 60, 60)" stroke-width="1px" opacity="0.25"></line><line x1="0" y1="163.16666666666666" x2="280" y2="163.16666666666666" fill="rgb(0, 0, 0)" stroke="rgb(60, 60, 60)" stroke-width="1px" opacity="0.25"></line><line x1="0" y1="148.33333333333334" x2="280" y2="148.33333333333334" fill="rgb(0, 0, 0)" stroke="rgb(60, 60, 60)" stroke-width="1px" opacity="0.25"></line><line x1="0" y1="133.5" x2="280" y2="133.5" fill="rgb(0, 0, 0)" stroke="rgb(60, 60, 60)" stroke-width="1px" opacity="0.25"></line><line x1="0" y1="118.66666666666667" x2="280" y2="118.66666666666667" fill="rgb(0, 0, 0)" stroke="rgb(60, 60, 60)" stroke-width="1px" opacity="0.25"></line><line x1="0" y1="103.83333333333334" x2="280" y2="103.83333333333334" fill="rgb(0, 0, 0)" stroke="rgb(60, 60, 60)" stroke-width="1px" opacity="0.25"></line><line x1="0" y1="89.00000000000001" x2="280" y2="89.00000000000001" fill="rgb(0, 0, 0)" stroke="rgb(60, 60, 60)" stroke-width="1px" opacity="0.25"></line><line x1="0" y1="74.16666666666669" x2="280" y2="74.16666666666669" fill="rgb(0, 0, 0)" stroke="rgb(60, 60, 60)" stroke-width="1px" opacity="0.25"></line><line x1="0" y1="59.33333333333336" x2="280" y2="59.33333333333336" fill="rgb(0, 0, 0)" stroke="rgb(60, 60, 60)" stroke-width="1px" opacity="0.25"></line><line x1="0" y1="44.50000000000003" x2="280" y2="44.50000000000003" fill="rgb(0, 0, 0)" stroke="rgb(60, 60, 60)" stroke-width="1px" opacity="0.25"></line><line x1="0" y1="29.666666666666686" x2="280" y2="29.666666666666686" fill="rgb(0, 0, 0)" stroke="rgb(60, 60, 60)" stroke-width="1px" opacity="0.25"></line><line x1="0" y1="14.833333333333343" x2="280" y2="14.833333333333343" fill="rgb(0, 0, 0)" stroke="rgb(60, 60, 60)" stroke-width="1px" opacity="0.25"></line><line x1="0" y1="0" x2="280" y2="0" fill="rgb(0, 0, 0)" stroke="rgb(60, 60, 60)" stroke-width="1px" opacity="0.25"></line></g></g></g><g><g><line x1="0" y1="163.16666666666666" x2="280" y2="163.16666666666666" fill="rgb(0, 0, 0)" stroke="rgb(153, 153, 153)" stroke-width="1.5px"></line></g></g><g><g><line x1="25.454545454545457" y1="0" x2="25.454545454545457" y2="178" fill="rgb(0, 0, 0)" stroke="rgb(153, 153, 153)" stroke-width="1.5px"></line></g></g><g><g><g><g><g><path stroke="rgb(238, 51, 119)" stroke-width="2px" d="M25.454545454545457,148.33333311229944L50.909090909090914,148.33333311229944L76.36363636363636,148.33333311229944L101.81818181818183,148.33333311229944L127.27272727272727,148.33333311229944L152.72727272727272,148.33333311229944L178.1818181818182,148.33333311229944L203.63636363636365,148.33333311229944L229.0909090909091,148.33333311229944L254.54545454545453,148.33333311229944" style="fill: none;" fill="none"></path></g><g><path stroke="rgb(51, 187, 238)" stroke-width="2px" d="M25.454545454545457,148.33333311229944L50.909090909090914,148.33333311229944L76.36363636363636,148.33333311229944L101.81818181818183,148.33333311229944L127.27272727272727,148.33333311229944L152.72727272727272,148.33333311229944L178.1818181818182,148.33333311229944L203.63636363636365,148.33333311229944L229.0909090909091,148.33333311229944L254.54545454545453,148.33333311229944" style="fill: none;" fill="none"></path></g><g><path stroke="rgb(204, 51, 17)" stroke-width="2px" d="M25.454545454545457,148.90194390217462L50.909090909090914,148.46621495764703L76.36363636363636,146.35631247995053L101.81818181818183,142.36132582701634L127.27272727272727,138.72273649337177L152.72727272727272,136.81458212705775L178.1818181818182,132.9519082836249L203.63636363636365,125.63856392197977L229.0909090909091,117.40207887759352L254.54545454545453,110.76558585291461" style="fill: none;" fill="none"></path></g><g><path stroke="rgb(0, 119, 187)" stroke-width="2px" d="M25.454545454545457,146.76347195108733L50.909090909090914,145.79930554081997L76.36363636363636,144.64265830733746L101.81818181818183,143.5324953154241L127.27272727272727,140.820634200259L152.72727272727272,134.68908467618405L178.1818181818182,129.35809516915046L203.63636363636365,124.41002581487118L229.0909090909091,119.76272550372883L254.54545454545453,115.93597441814893" style="fill: none;" fill="none"></path></g><g><path stroke="rgb(255, 112, 67)" stroke-width="2px" d="M25.454545454545457,132.39491630593938L50.909090909090914,112.50434445465606L76.36363636363636,103.35791101382704L101.81818181818183,90.76537441418454L127.27272727272727,82.37371242458613L152.72727272727272,76.78098113906884L178.1818181818182,72.87278571793574L203.63636363636365,69.95035421884687L229.0909090909091,67.64323980767432L254.54545454545453,65.7366932023384" style="fill: none;" fill="none"></path></g><g><path stroke="rgb(187, 187, 187)" stroke-width="2px" d="M25.454545454545457,143.98716692129773L50.909090909090914,128.781455360353L76.36363636363636,110.33391663026647L101.81818181818183,95.01608128469512L127.27272727272727,85.1088858297336L152.72727272727272,78.27726331416011L178.1818181818182,73.40944607181349L203.63636363636365,69.84323519156355L229.0909090909091,67.18881464418033L254.54545454545453,65.13682422437911" style="fill: none;" fill="none"></path></g><g><path stroke="rgb(0, 153, 136)" stroke-width="2px" d="M25.454545454545457,99.46244472265245L50.909090909090914,79.71248081823192L76.36363636363636,71.21453177482904L101.81818181818183,66.19296806400607L127.27272727272727,62.83389102221365L152.72727272727272,60.43988605187204L178.1818181818182,58.566305051913716L203.63636363636365,57.001566750573716L229.0909090909091,55.682133805867366L254.54545454545453,54.55280843054982" style="fill: none;" fill="none"></path></g><g><path stroke="rgb(238, 51, 119)" stroke-width="2px" d="M25.454545454545457,105.54658382137617L50.909090909090914,80.08269214009248L76.36363636363636,69.64764408331341L101.81818181818183,64.08846240720767L127.27272727272727,60.628872267169456L152.72727272727272,58.3219107604658L178.1818181818182,56.650490679156974L203.63636363636365,55.32707891054635L229.0909090909091,54.19077341305217L254.54545454545453,53.23778908466602" style="fill: none;" fill="none"></path></g><g><path stroke="rgb(51, 187, 238)" stroke-width="2px" d="M25.454545454545457,148.33333311229944L50.909090909090914,148.33333311229944L76.36363636363636,148.31819736552077L101.81818181818183,146.93339231147377L127.27272727272727,143.53995046763578L152.72727272727272,141.08459067987522L178.1818181818182,139.24526474941558L203.63636363636365,137.18046745379695L229.0909090909091,134.717312930405L254.54545454545453,132.20080449111575" style="fill: none;" fill="none"></path></g><g><path stroke="rgb(204, 51, 17)" stroke-width="2px" d="M25.454545454545457,148.33333311229944L50.909090909090914,148.33333311229944L76.36363636363636,148.33333311229944L101.81818181818183,148.33333311229944L127.27272727272727,148.33118853902454L152.72727272727272,148.2210988917715L178.1818181818182,147.38217476496908L203.63636363636365,144.68440362538237L229.0909090909091,139.57471505140143L254.54545454545453,133.5832116374895" style="fill: none;" fill="none"></path></g><g><path stroke="rgb(0, 119, 187)" stroke-width="2px" d="M25.454545454545457,131.60874959329766L50.909090909090914,115.30907913980384L76.36363636363636,100.99809622044872L101.81818181818183,86.80194835545606L127.27272727272727,77.71565023756416L152.72727272727272,71.41462046913057L178.1818181818182,66.89464108493905L203.63636363636365,63.63237989984083L229.0909090909091,61.22695401595112L254.54545454545453,59.354585724700485" style="fill: none;" fill="none"></path></g><g><path stroke="rgb(255, 112, 67)" stroke-width="2px" d="M25.454545454545457,137.7794168293476L50.909090909090914,119.32273327310881L76.36363636363636,109.79915878217237L101.81818181818183,96.96070891870735L127.27272727272727,85.04345191991388L152.72727272727272,76.05579890024933L178.1818181818182,69.72355116874101L203.63636363636365,65.07001427829972L229.0909090909091,61.70807373583796L254.54545454545453,59.191394922722964" style="fill: none;" fill="none"></path></g><g><path stroke="rgb(187, 187, 187)" stroke-width="2px" d="M25.454545454545457,83.6847184499105L50.909090909090914,67.91658062736195L76.36363636363636,61.42967573761129L101.81818181818183,57.69071176129523L127.27272727272727,55.05553692568242L152.72727272727272,53.044599722119884L178.1818181818182,51.36671185640408L203.63636363636365,49.94298055037919L229.0909090909091,48.66266401415464L254.54545454545453,47.475968238207344" style="fill: none;" fill="none"></path></g><g><path stroke="rgb(0, 153, 136)" stroke-width="2px" d="M25.454545454545457,86.22369054953259L50.909090909090914,69.17926435917617L76.36363636363636,62.14147253020282L101.81818181818183,57.681159359129055L127.27272727272727,54.667329473460214L152.72727272727272,52.26536563182076L178.1818181818182,50.51442658958828L203.63636363636365,49.101502621082346L229.0909090909091,47.92145391094334L254.54545454545453,46.83008359292478" style="fill: none;" fill="none"></path></g><g><path stroke="rgb(238, 51, 119)" stroke-width="2px" d="M25.454545454545457,62.710388143857344L50.909090909090914,54.63085896273455L76.36363636363636,50.01451991163957L101.81818181818183,46.5884091919836L127.27272727272727,43.83723762263975L152.72727272727272,41.668362687799714L178.1818181818182,39.90259786072383L203.63636363636365,38.38851684896596L229.0909090909091,37.17284772615358L254.54545454545453,36.15385981416824" style="fill: none;" fill="none"></path></g><g><path stroke="rgb(51, 187, 238)" stroke-width="2px" d="M25.454545454545457,63.41003113985066L50.909090909090914,54.53784127036732L76.36363636363636,49.774712033417785L101.81818181818183,46.2088600658611L127.27272727272727,43.47219082858592L152.72727272727272,41.241764255788354L178.1818181818182,39.459271336823264L203.63636363636365,38.06419698831047L229.0909090909091,36.920636625774705L254.54545454545453,36.00016166513299" style="fill: none;" fill="none"></path></g><g><path stroke="rgb(204, 51, 17)" stroke-width="2px" d="M25.454545454545457,147.22577759623528L50.909090909090914,136.20584699573618L76.36363636363636,120.54696867832928L101.81818181818183,110.93464587524754L127.27272727272727,103.84647811391537L152.72727272727272,96.10697056480537L178.1818181818182,86.8675030301977L203.63636363636365,79.80548772418165L229.0909090909091,74.20446809350636L254.54545454545453,69.30924802725437" style="fill: none;" fill="none"></path></g><g><path stroke="rgb(0, 119, 187)" stroke-width="2px" d="M25.454545454545457,148.2097221190731L50.909090909090914,143.00105916739753L76.36363636363636,133.3163489258918L101.81818181818183,116.0020289085897L127.27272727272727,98.63967562058741L152.72727272727272,87.62766343652916L178.1818181818182,80.04430031150876L203.63636363636365,74.07551602571793L229.0909090909091,69.72792911412297L254.54545454545453,66.0094158422811" style="fill: none;" fill="none"></path></g><g><path stroke="rgb(255, 112, 67)" stroke-width="2px" d="M25.454545454545457,89.88011274735135L50.909090909090914,71.88233422984682L76.36363636363636,63.70760157927367L101.81818181818183,58.30033389442403L127.27272727272727,54.31132568667506L152.72727272727272,51.18844854219216L178.1818181818182,48.63338993724108L203.63636363636365,46.47705878847049L229.0909090909091,44.606305839913006L254.54545454545453,42.9746633239412" style="fill: none;" fill="none"></path></g><g><path stroke="rgb(187, 187, 187)" stroke-width="2px" d="M25.454545454545457,100.352446526289L50.909090909090914,73.134822220852L76.36363636363636,62.127601435598095L101.81818181818183,55.72292499255174L127.27272727272727,51.30452427582391L152.72727272727272,48.08542242958194L178.1818181818182,45.40436708273455L203.63636363636365,43.00274887914088L229.0909090909091,41.143321689095615L254.54545454545453,39.60595423121532" style="fill: none;" fill="none"></path></g><g><path stroke="rgb(0, 153, 136)" stroke-width="2px" d="M25.454545454545457,57.04405172665916L50.909090909090914,47.99263100077712L76.36363636363636,43.21626172098175L101.81818181818183,39.91609894170193L127.27272727272727,37.50045289343609L152.72727272727272,35.7466914334201L178.1818181818182,34.39426854947493L203.63636363636365,33.36607040957935L229.0909090909091,32.46762164201331L254.54545454545453,31.705553095787337" style="fill: none;" fill="none"></path></g><g><path stroke="rgb(238, 51, 119)" stroke-width="2px" d="M25.454545454545457,60.24311059713365L50.909090909090914,49.984933239718316L76.36363636363636,44.18199235200885L101.81818181818183,40.534591847482886L127.27272727272727,37.885002159600816L152.72727272727272,35.971970548619254L178.1818181818182,34.64485212976351L203.63636363636365,33.45838350618811L229.0909090909091,32.49166676784165L254.54545454545453,31.734847707685958" style="fill: none;" fill="none"></path></g><g><path stroke="rgb(51, 187, 238)" stroke-width="2px" d="M25.454545454545457,45.20458354552591L50.909090909090914,38.929773981372534L76.36363636363636,35.88253873465018L101.81818181818183,33.98487446931941L127.27272727272727,32.565522646727544L152.72727272727272,31.399021316902605L178.1818181818182,30.437883971957376L203.63636363636365,29.701698313177502L229.0909090909091,29.0911651565643L254.54545454545453,28.593501217678124" style="fill: none;" fill="none"></path></g><g><path stroke="rgb(204, 51, 17)" stroke-width="2px" d="M25.454545454545457,48.411051472028134L50.909090909090914,41.62480263908705L76.36363636363636,38.20910051282573L101.81818181818183,36.100022339134284L127.27272727272727,34.50206625968974L152.72727272727272,33.34041922400493L178.1818181818182,32.40849645701178L203.63636363636365,31.673214410961407L229.0909090909091,31.026252056189833L254.54545454545453,30.409465564811143" style="fill: none;" fill="none"></path></g><g><path stroke="rgb(0, 119, 187)" stroke-width="2px" d="M25.454545454545457,130.83741646508378L50.909090909090914,100.78600920053819L76.36363636363636,85.07683495954187L101.81818181818183,74.73905916601494L127.27272727272727,66.84981063536728L152.72727272727272,61.55823441215577L178.1818181818182,57.54170266054929L203.63636363636365,54.51902934327265L229.0909090909091,51.800230282614095L254.54545454545453,49.57572098917083" style="fill: none;" fill="none"></path></g><g><path stroke="rgb(255, 112, 67)" stroke-width="2px" d="M25.454545454545457,126.3849451293548L50.909090909090914,109.75152455208203L76.36363636363636,97.06388331969987L101.81818181818183,84.13948267060974L127.27272727272727,74.61136112194455L152.72727272727272,67.79030625379889L178.1818181818182,62.45950142335006L203.63636363636365,58.30308953628956L229.0909090909091,55.111151605018236L254.54545454545453,52.6615447753843" style="fill: none;" fill="none"></path></g><g><path stroke="rgb(187, 187, 187)" stroke-width="2px" d="M25.454545454545457,75.59808744986854L50.909090909090914,58.771523314217745L76.36363636363636,49.95634721979803L101.81818181818183,44.304021392675L127.27272727272727,40.57818119620495L152.72727272727272,37.96770223046863L178.1818181818182,35.98818379571614L203.63636363636365,34.44227735693269L229.0909090909091,33.44461114528494L254.54545454545453,32.6027666013083" style="fill: none;" fill="none"></path></g><g><path stroke="rgb(0, 153, 136)" stroke-width="2px" d="M25.454545454545457,70.35202487309776L50.909090909090914,55.609854536751925L76.36363636363636,47.57655200017555L101.81818181818183,42.966755787750714L127.27272727272727,39.83914970313407L152.72727272727272,37.60202536961907L178.1818181818182,35.93068552178593L203.63636363636365,34.68275222336345L229.0909090909091,33.63087310807546L254.54545454545453,32.80858674834997" style="fill: none;" fill="none"></path></g><g><path stroke="rgb(238, 51, 119)" stroke-width="2px" d="M25.454545454545457,44.61372458934787L50.909090909090914,39.253636154035746L76.36363636363636,36.64156081644049L101.81818181818183,35.026770925405L127.27272727272727,33.891095170537994L152.72727272727272,33.0169167596643L178.1818181818182,32.517230434854156L203.63636363636365,32.1460599702782L229.0909090909091,31.731591305922763L254.54545454545453,31.43685064699602" style="fill: none;" fill="none"></path></g><g><path stroke="rgb(51, 187, 238)" stroke-width="2px" d="M25.454545454545457,46.166275481383025L50.909090909090914,39.47273378819227L76.36363636363636,36.77031874170109L101.81818181818183,35.248598165591005L127.27272727272727,34.208649828206234L152.72727272727272,33.26761680935883L178.1818181818182,32.692228655443245L203.63636363636365,32.07887813495043L229.0909090909091,31.702544926236413L254.54545454545453,31.395615382574732" style="fill: none;" fill="none"></path></g><g><path stroke="rgb(204, 51, 17)" stroke-width="2px" d="M25.454545454545457,47.02166779836023L50.909090909090914,44.119896195828915L76.36363636363636,43.56080844815895L101.81818181818183,42.7949377904628L127.27272727272727,42.517957346226524L152.72727272727272,42.1100195035408L178.1818181818182,41.57359699692509L203.63636363636365,41.421435289848404L229.0909090909091,41.985109086710594L254.54545454545453,41.98934709340983" style="fill: none;" fill="none"></path></g><g><path stroke="rgb(0, 119, 187)" stroke-width="2px" d="M25.454545454545457,50.037781337897L50.909090909090914,46.137848312656104L76.36363636363636,44.59334129500553L101.81818181818183,43.74720181824239L127.27272727272727,43.27165264791566L152.72727272727272,42.861779954872645L178.1818181818182,42.71390614361542L203.63636363636365,42.71739028803049L229.0909090909091,42.64951751163542L254.54545454545453,42.39035331018002" style="fill: none;" fill="none"></path></g><g><path stroke="rgb(255, 112, 67)" stroke-width="2px" d="M25.454545454545457,148.7165274123351L50.909090909090914,148.44303803456327L76.36363636363636,148.37571446633055L101.81818181818183,148.31420117849484L127.27272727272727,148.36646247948318L152.72727272727272,148.44695529122654L178.1818181818182,148.434788167359L203.63636363636365,148.3844611358731L229.0909090909091,148.521636777761L254.54545454545453,148.57022006938897" style="fill: none;" fill="none"></path></g><g><path stroke="rgb(187, 187, 187)" stroke-width="2px" d="M25.454545454545457,148.37288933744034L50.909090909090914,148.24464271093407L76.36363636363636,148.32016497313165L101.81818181818183,148.39665683951483L127.27272727272727,148.45282857565212L152.72727272727272,148.3985419720178L178.1818181818182,148.37170722701268L203.63636363636365,148.26658103206958L229.0909090909091,148.29455265934638L254.54545454545453,148.3270728735118" style="fill: none;" fill="none"></path></g><g><path stroke="rgb(0, 153, 136)" stroke-width="2px" d="M25.454545454545457,148.2270279675722L50.909090909090914,148.38772236928344L76.36363636363636,148.3410529239344L101.81818181818183,148.38295073921373L127.27272727272727,148.44399488870533L152.72727272727272,148.49818079557733L178.1818181818182,148.50054140855406L203.63636363636365,148.5019147613378L229.0909090909091,148.50572033215855L254.54545454545453,148.48410130827813" style="fill: none;" fill="none"></path></g><g><path stroke="rgb(238, 51, 119)" stroke-width="2px" d="M25.454545454545457,148.24927723904452L50.909090909090914,148.40533683635294L76.36363636363636,148.31688564214983L101.81818181818183,148.2710461518636L127.27272727272727,148.24552057556275L152.72727272727272,148.23257501620662L178.1818181818182,148.40324471850542L203.63636363636365,148.33155388746343L229.0909090909091,148.31329278266088L254.54545454545453,148.28753079231006" style="fill: none;" fill="none"></path></g><g><path stroke="rgb(51, 187, 238)" stroke-width="2px" d="M25.454545454545457,148.38772181669873L50.909090909090914,148.42944058217108L76.36363636363636,148.42455316760712L101.81818181818183,148.40081059859665L127.27272727272727,148.39513364600384L152.72727272727272,148.39202382234936L178.1818181818182,148.39025346131032L203.63636363636365,148.38922350414026L229.0909090909091,148.38861671411826L254.54545454545453,148.38825657754228" style="fill: none;" fill="none"></path></g><g><path stroke="rgb(204, 51, 17)" stroke-width="2px" d="M25.454545454545457,148.3827772885561L50.909090909090914,148.41831608458114L76.36363636363636,148.34720808627452L101.81818181818183,148.36014628261512L127.27272727272727,148.32921601785552L152.72727272727272,148.2915269025197L178.1818181818182,148.18156002440605L203.63636363636365,148.27951468222795L229.0909090909091,148.2373282784822L254.54545454545453,148.2172643451293" style="fill: none;" fill="none"></path></g><g><path stroke="rgb(0, 119, 187)" stroke-width="2px" d="M25.454545454545457,147.98969393223524L50.909090909090914,148.01287140790373L76.36363636363636,148.01870519429647L101.81818181818183,148.0212789235874L127.27272727272727,148.02259168627222L152.72727272727272,148.02331081513287L178.1818181818182,148.02372020095612L203.63636363636365,148.02395837263674L229.0909090909091,148.02409868934458L254.54545454545453,148.02418196885952" style="fill: none;" fill="none"></path></g><g><path stroke="rgb(255, 112, 67)" stroke-width="2px" d="M25.454545454545457,148.6448328594367L50.909090909090914,148.4779584882781L76.36363636363636,148.25407110326955L101.81818181818183,148.2768633575635L127.27272727272727,148.20485191108375L152.72727272727272,148.219342956014L178.1818181818182,148.28456512309808L203.63636363636365,148.43817460649382L229.0909090909091,148.42577982476166L254.54545454545453,148.60148583479094" style="fill: none;" fill="none"></path></g></g></g></g><g opacity="0.2"><g><g><g><path stroke="rgb(238, 51, 119)" stroke-width="2px" d="M25.454545454545457,148.33333311229944L50.909090909090914,148.33333311229944L76.36363636363636,148.33333311229944L101.81818181818183,148.33333311229944L127.27272727272727,148.33333311229944L152.72727272727272,148.33333311229944L178.1818181818182,148.33333311229944L203.63636363636365,148.33333311229944L229.0909090909091,148.33333311229944L254.54545454545453,148.33333311229944" style="fill: none;" fill="none"></path></g><g><path stroke="rgb(51, 187, 238)" stroke-width="2px" d="M25.454545454545457,148.33333311229944L50.909090909090914,148.33333311229944L76.36363636363636,148.33333311229944L101.81818181818183,148.33333311229944L127.27272727272727,148.33333311229944L152.72727272727272,148.33333311229944L178.1818181818182,148.33333311229944L203.63636363636365,148.33333311229944L229.0909090909091,148.33333311229944L254.54545454545453,148.33333311229944" style="fill: none;" fill="none"></path></g><g><path stroke="rgb(204, 51, 17)" stroke-width="2px" d="M25.454545454545457,148.90194390217465L50.909090909090914,148.20477759093046L76.36363636363636,144.33080610136193L101.81818181818183,137.6632215231657L127.27272727272727,133.9721942593654L152.72727272727272,134.17491770287356L178.1818181818182,127.42822288473448L203.63636363636365,114.97563763459524L229.0909090909091,105.25486329197885L254.54545454545453,100.91116715470952" style="fill: none;" fill="none"></path></g><g><path stroke="rgb(0, 119, 187)" stroke-width="2px" d="M25.454545454545457,146.76347195108733L50.909090909090914,145.22080569465956L76.36363636363636,143.53227696319422L101.81818181818183,142.22694363693398L127.27272727272727,137.28002832829952L152.72727272727272,126.20694432655972L178.1818181818182,121.73469487826031L203.63636363636365,117.19569319486618L229.0909090909091,112.90886023640634L254.54545454545453,110.25369504094125" style="fill: none;" fill="none"></path></g><g><path stroke="rgb(255, 112, 67)" stroke-width="2px" d="M25.454545454545457,132.39491630593938L50.909090909090914,100.57000134388608L76.36363636363636,94.5773349106312L101.81818181818183,75.95655137300493L127.27272727272727,71.41755853096646L152.72727272727272,69.04422038793565L178.1818181818182,67.28400373458864L203.63636363636365,65.68942103783291L229.0909090909091,64.24069418509804L254.54545454545453,62.905693689982115" style="fill: none;" fill="none"></path></g><g><path stroke="rgb(187, 187, 187)" stroke-width="2px" d="M25.454545454545457,143.98716692129773L50.909090909090914,119.65802842378616L76.36363636363636,92.62427944938344L101.81818181818183,77.00230691830319L127.27272727272727,72.17405144373578L152.72727272727272,68.8266699910164L178.1818181818182,66.4483895301819L203.63636363636365,64.64366549253465L229.0909090909091,63.27405993143719L254.54545454545453,62.08985759814583" style="fill: none;" fill="none"></path></g><g><path stroke="rgb(0, 153, 136)" stroke-width="2px" d="M25.454545454545457,99.46244472265245L50.909090909090914,67.8625024755796L76.36363636363636,63.056500693162306L101.81818181818183,60.287609140078246L127.27272727272727,58.44828003644945L152.72727272727272,57.12811533610028L178.1818181818182,55.887054244677245L203.63636363636365,54.72016328573228L229.0909090909091,53.73622649908067L254.54545454545453,52.87589186429979" style="fill: none;" fill="none"></path></g><g><path stroke="rgb(238, 51, 119)" stroke-width="2px" d="M25.454545454545457,105.54658382137617L50.909090909090914,64.80435713132225L76.36363636363636,59.62999794880551L101.81818181818183,57.550864756107345L127.27272727272727,56.11203138033551L152.72727272727272,55.13055249055229L178.1818181818182,54.260333220164L203.63636363636365,53.39753184715909L229.0909090909091,52.51494352022809L254.54545454545453,51.82271842161816" style="fill: none;" fill="none"></path></g><g><path stroke="rgb(51, 187, 238)" stroke-width="2px" d="M25.454545454545457,148.33333311229944L50.909090909090914,148.33333311229944L76.36363636363636,148.30366704861325L101.81818181818183,145.3048615679145L127.27272727272727,139.10947279632092L152.72727272727272,137.68794416387877L178.1818181818182,136.61499923964342L203.63636363636365,134.16997317473096L229.0909090909091,131.0846384515365L254.54545454545453,128.4640827427308" style="fill: none;" fill="none"></path></g><g><path stroke="rgb(204, 51, 17)" stroke-width="2px" d="M25.454545454545457,148.33333311229944L50.909090909090914,148.33333311229944L76.36363636363636,148.33333311229944L101.81818181818183,148.33333311229944L127.27272727272727,148.32838858415684L152.72727272727272,148.06880527734756L178.1818181818182,146.1824998408556L203.63636363636365,140.751027405262L229.0909090909091,132.0389169106881L254.54545454545453,124.68652734160423" style="fill: none;" fill="none"></path></g><g><path stroke="rgb(0, 119, 187)" stroke-width="2px" d="M25.454545454545457,131.60874959329766L50.909090909090914,105.52927686770758L76.36363636363636,87.25955261786781L101.81818181818183,70.10727846622468L127.27272727272727,65.85257941484453L152.72727272727272,62.69802792867027L178.1818181818182,60.43099824587506L203.63636363636365,58.87597177426022L229.0909090909091,57.67941806713742L254.54545454545453,56.57433702548347" style="fill: none;" fill="none"></path></g><g><path stroke="rgb(255, 112, 67)" stroke-width="2px" d="M25.454545454545457,137.7794168293476L50.909090909090914,108.24872313936552L76.36363636363636,100.6565272708734L101.81818181818183,81.86269187927248L127.27272727272727,69.48428118228914L152.72727272727272,63.622639218966185L178.1818181818182,60.6683355967204L203.63636363636365,58.2851128180822L229.0909090909091,56.749864459037795L254.54545454545453,55.45442018906277" style="fill: none;" fill="none"></path></g><g><path stroke="rgb(187, 187, 187)" stroke-width="2px" d="M25.454545454545457,83.6847184499105L50.909090909090914,58.45569793383282L76.36363636363636,55.2022470434507L101.81818181818183,53.29369012514752L127.27272727272727,51.61505266030632L152.72727272727272,50.26274963219963L178.1818181818182,48.96730536222461L203.63636363636365,47.86716663837436L229.0909090909091,46.77444581190747L254.54545454545453,45.71386331319812" style="fill: none;" fill="none"></path></g><g><path stroke="rgb(0, 153, 136)" stroke-width="2px" d="M25.454545454545457,86.22369054953259L50.909090909090914,58.952608644962325L76.36363636363636,55.385192374388396L101.81818181818183,52.4358310699463L127.27272727272727,50.732473174730956L152.72727272727272,48.94258493185046L178.1818181818182,48.01055574417117L203.63636363636365,47.04144591093066L229.0909090909091,46.18111127614978L254.54545454545453,45.20952586332959" style="fill: none;" fill="none"></path></g><g><path stroke="rgb(238, 51, 119)" stroke-width="2px" d="M25.454545454545457,62.710388143857344L50.909090909090914,49.78314145406091L76.36363636363636,45.58283442258838L101.81818181818183,42.55930298566821L127.27272727272727,40.245308021704375L152.72727272727272,38.66802785793942L178.1818181818182,37.377525905768096L203.63636363636365,36.18097219864529L229.0909090909091,35.37997190157574L254.54545454545453,34.64078152179721" style="fill: none;" fill="none"></path></g><g><path stroke="rgb(51, 187, 238)" stroke-width="2px" d="M25.454545454545457,63.41003113985063L50.909090909090914,49.214527348677336L76.36363636363636,45.202107965946226L101.81818181818183,42.01541815201443L127.27272727272727,39.89919547239941L152.72727272727272,38.15628135204318L178.1818181818182,36.910277942816435L203.63636363636365,36.030165195465116L229.0909090909091,35.23410721619928L254.54545454545453,34.633363624413846" style="fill: none;" fill="none"></path></g><g><path stroke="rgb(204, 51, 17)" stroke-width="2px" d="M25.454545454545457,147.22577759623528L50.909090909090914,129.5938886354367L76.36363636363636,105.51444549361867L101.81818181818183,99.63055425882341L127.27272727272727,94.59216628472012L152.72727272727272,85.40044540166856L178.1818181818182,73.65491662422818L203.63636363636365,69.50900161266328L229.0909090909091,65.94405208031338L254.54545454545453,62.040416737397535" style="fill: none;" fill="none"></path></g><g><path stroke="rgb(0, 119, 187)" stroke-width="2px" d="M25.454545454545457,148.2097221190731L50.909090909090914,139.8758613963922L76.36363636363636,124.0190270940463L101.81818181818183,95.6403885682424L127.27272727272727,75.97138716777168L152.72727272727272,72.39408626159035L178.1818181818182,69.19996970891954L203.63636363636365,65.3729712367058L229.0909090909091,63.31608289480211L254.54545454545453,60.48785700400673" style="fill: none;" fill="none"></path></g><g><path stroke="rgb(255, 112, 67)" stroke-width="2px" d="M25.454545454545457,89.88011274735135L50.909090909090914,61.0836671193441L76.36363636363636,55.85985823472343L101.81818181818183,51.94138709704083L127.27272727272727,49.10327657063806L152.72727272727272,46.86838521560037L178.1818181818182,44.979615251223265L203.63636363636365,43.333107272783934L229.0909090909091,41.847308615843474L254.54545454545453,40.551864345868466" style="fill: none;" fill="none"></path></g><g><path stroke="rgb(187, 187, 187)" stroke-width="2px" d="M25.454545454545457,100.352446526289L50.909090909090914,56.804247637589796L76.36363636363636,51.56066948175432L101.81818181818183,48.1910254955292L127.27272727272727,45.535860300064115L152.72727272727272,43.632245699564635L178.1818181818182,41.57041503985727L203.63636363636365,39.50116648276651L229.0909090909091,38.40102775891626L254.54545454545453,37.32314272721612" style="fill: none;" fill="none"></path></g><g><path stroke="rgb(0, 153, 136)" stroke-width="2px" d="M25.454545454545457,57.04405172665916L50.909090909090914,42.56177856524789L76.36363636363636,38.6309472123782L101.81818181818183,36.03510751326883L127.27272727272727,34.34658541282022L152.72727272727272,33.320607980092404L178.1818181818182,32.46028218666714L203.63636363636365,31.866947650909452L229.0909090909091,31.14258422454202L254.54545454545453,30.573970119158446" style="fill: none;" fill="none"></path></g><g><path stroke="rgb(238, 51, 119)" stroke-width="2px" d="M25.454545454545457,60.24311059713365L50.909090909090914,43.8300268252691L76.36363636363636,38.61116909980777L101.81818181818183,36.24524885416034L127.27272727272727,34.42569786310199L152.72727272727272,33.32555913925174L178.1818181818182,32.74705155690515L203.63636363636365,31.72850086291635L229.0909090909091,31.065947353839903L254.54545454545453,30.611059606075315" style="fill: none;" fill="none"></path></g><g><path stroke="rgb(51, 187, 238)" stroke-width="2px" d="M25.454545454545457,45.20458354552591L50.909090909090914,35.16488824288052L76.36363636363636,32.95719289779666L101.81818181818183,31.753221293290494L127.27272727272727,30.712416907151578L152.72727272727272,29.78533003727597L178.1818181818182,29.06344219048819L203.63636363636365,28.628332555294037L229.0909090909091,28.190747340520232L254.54545454545453,27.854528268178314" style="fill: none;" fill="none"></path></g><g><path stroke="rgb(204, 51, 17)" stroke-width="2px" d="M25.454545454545457,48.411051472028134L50.909090909090914,37.553053339322446L76.36363636363636,34.930026471614866L101.81818181818183,33.619746406873105L127.27272727272727,32.41577480236691L152.72727272727272,31.73344318072003L178.1818181818182,31.075831989447295L203.63636363636365,30.601166129112272L229.0909090909091,30.072108248869597L254.54545454545453,29.49360950787863" style="fill: none;" fill="none"></path></g><g><path stroke="rgb(0, 119, 187)" stroke-width="2px" d="M25.454545454545457,130.83741646508378L50.909090909090914,82.75516484181088L76.36363636363636,69.99602768818539L101.81818181818183,62.58183483282727L127.27272727272727,56.549607753753676L152.72727272727272,54.238079528013884L178.1818181818182,51.79799799124402L203.63636363636365,50.11194262901944L229.0909090909091,47.79052976767224L254.54545454545453,46.27258394161862" style="fill: none;" fill="none"></path></g><g><path stroke="rgb(255, 112, 67)" stroke-width="2px" d="M25.454545454545457,126.3849451293548L50.909090909090914,99.77147220571837L76.36363636363636,84.88374773661297L101.81818181818183,68.94038750727974L127.27272727272727,62.17144562800728L152.72727272727272,58.354331791400924L178.1818181818182,54.83636522293092L203.63636363636365,52.2430011034012L229.0909090909091,50.40366315841676L254.54545454545453,49.02416412035626" style="fill: none;" fill="none"></path></g><g><path stroke="rgb(187, 187, 187)" stroke-width="2px" d="M25.454545454545457,75.59808744986854L50.909090909090914,48.67558483282727L76.36363636363636,41.49377816915515L101.81818181818183,37.65688621997836L127.27272727272727,35.71372423569363L152.72727272727272,34.35647004842761L178.1818181818182,33.15744076172513L203.63636363636365,32.18833092848462L229.0909090909091,31.973247269789397L254.54545454545453,31.35272556543353" style="fill: none;" fill="none"></path></g><g><path stroke="rgb(0, 153, 136)" stroke-width="2px" d="M25.454545454545457,70.35202487309776L50.909090909090914,46.764552334944426L76.36363636363636,39.864581565062224L101.81818181818183,37.545635441939055L127.27272727272727,35.75574719905856L152.72727272727272,34.50727705160779L178.1818181818182,33.54064279794696L203.63636363636365,32.86325349410379L229.0909090909091,32.07955573002499L254.54545454545453,31.587587336699187" style="fill: none;" fill="none"></path></g><g><path stroke="rgb(238, 51, 119)" stroke-width="2px" d="M25.454545454545457,44.61372458934787L50.909090909090914,36.03758309284848L76.36363636363636,34.13396849234903L101.81818181818183,33.1277780135473L127.27272727272727,32.40835690498355L152.72727272727272,31.807613313198118L178.1818181818182,31.802670995394408L203.63636363636365,31.60488986968997L229.0909090909091,31.120330532391904L254.54545454545453,30.999195118745206" style="fill: none;" fill="none"></path></g><g><path stroke="rgb(51, 187, 238)" stroke-width="2px" d="M25.454545454545457,46.166275481383025L50.909090909090914,35.45660877227786L76.36363636363636,34.17600029706958L101.81818181818183,33.45905476808551L127.27272727272727,32.850893278916715L152.72727272727272,31.965829372406034L178.1818181818182,31.869414389133482L203.63636363636365,31.18460718790692L229.0909090909091,31.1475265423457L254.54545454545453,30.93986078103387" style="fill: none;" fill="none"></path></g><g><path stroke="rgb(204, 51, 17)" stroke-width="2px" d="M25.454545454545457,47.02166779836023L50.909090909090914,42.37883323431018L76.36363636363636,43.02408421039584L101.81818181818183,41.89427389701211L127.27272727272727,42.156331678231595L152.72727272727272,41.54569460948312L178.1818181818182,40.80650422970456L203.63636363636365,41.19958206017816L229.0909090909091,42.81641844908398L254.54545454545453,41.995640039444" style="fill: none;" fill="none"></path></g><g><path stroke="rgb(0, 119, 187)" stroke-width="2px" d="M25.454545454545457,50.037781337897L50.909090909090914,43.797888497511565L76.36363636363636,43.110614558061L101.81818181818183,42.75214179356897L127.27272727272727,42.65077565113705L152.72727272727272,42.2947784662247L178.1818181818182,42.50244422753656L203.63636363636365,42.72247020403546L229.0909090909091,42.54941835006082L254.54545454545453,42.00552467505139" style="fill: none;" fill="none"></path></g><g><path stroke="rgb(255, 112, 67)" stroke-width="2px" d="M25.454545454545457,148.7165274123351L50.909090909090914,148.27894440790018L76.36363636363636,148.31108384082717L101.81818181818183,148.24186155200005L127.27272727272727,148.43469483405352L152.72727272727272,148.5583058272799L178.1818181818182,148.4173889855544L203.63636363636365,148.31108384082717L229.0909090909091,148.723944204549L254.54545454545453,148.64236059536537" style="fill: none;" fill="none"></path></g><g><path stroke="rgb(187, 187, 187)" stroke-width="2px" d="M25.454545454545457,148.37288933744034L50.909090909090914,148.16769473503035L76.36363636363636,148.39266634484133L101.81818181818183,148.4866112743815L127.27272727272727,148.5261663943529L152.72727272727272,148.32344405601424L178.1818181818182,148.33333311229944L203.63636363636365,148.11330603063107L229.0909090909091,148.33580537637076L254.54545454545453,148.37536160151166" style="fill: none;" fill="none"></path></g><g><path stroke="rgb(0, 153, 136)" stroke-width="2px" d="M25.454545454545457,148.2270279675722L50.909090909090914,148.48413901031017L76.36363636363636,148.29625025639933L101.81818181818183,148.43222256998223L127.27272727272727,148.52369413028163L152.72727272727272,148.57313941170773L178.1818181818182,148.50391712288064L203.63636363636365,148.50391712288064L229.0909090909091,148.51133280992508L254.54545454545453,148.45199957738322" style="fill: none;" fill="none"></path></g><g><path stroke="rgb(238, 51, 119)" stroke-width="2px" d="M25.454545454545457,148.24927723904452L50.909090909090914,148.498972594738L76.36363636363636,148.23197249571484L101.81818181818183,148.217138911287L127.27272727272727,148.21219438314438L152.72727272727272,148.2146666472157L178.1818181818182,148.64730512350798L203.63636363636365,148.2270279675722L229.0909090909091,148.2863612001141L254.54545454545453,148.24927723904452" style="fill: none;" fill="none"></path></g><g><path stroke="rgb(51, 187, 238)" stroke-width="2px" d="M25.454545454545457,148.38772181669873L50.909090909090914,148.4544718414545L76.36363636363636,148.41986124962568L101.81818181818183,148.37288933744034L127.27272727272727,148.38772181669873L152.72727272727272,148.38772181669873L178.1818181818182,148.38772181669873L203.63636363636365,148.38772181669873L229.0909090909091,148.38772181669873L254.54545454545453,148.38772181669873" style="fill: none;" fill="none"></path></g><g><path stroke="rgb(204, 51, 17)" stroke-width="2px" d="M25.454545454545457,148.3827772885561L50.909090909090914,148.43963936219615L76.36363636363636,148.27894440790018L101.81818181818183,148.37536160151166L127.27272727272727,148.28883346418542L152.72727272727272,148.23938928792876L178.1818181818182,148.02430562923354L203.63636363636365,148.422333513697L229.0909090909091,148.17511152724427L254.54545454545453,148.18747174243134" style="fill: none;" fill="none"></path></g><g><path stroke="rgb(0, 119, 187)" stroke-width="2px" d="M25.454545454545457,147.98969393223524L50.909090909090914,148.02677789330482L76.36363636363636,148.02430562923354L101.81818181818183,148.02430562923354L127.27272727272727,148.02430562923354L152.72727272727272,148.02430562923354L178.1818181818182,148.02430562923354L203.63636363636365,148.02430562923354L229.0909090909091,148.02430562923354L254.54545454545453,148.02430562923354" style="fill: none;" fill="none"></path></g><g><path stroke="rgb(255, 112, 67)" stroke-width="2px" d="M25.454545454545457,148.6448328594367L50.909090909090914,148.37783386558294L76.36363636363636,148.03913921366137L101.81818181818183,148.30366704861325L127.27272727272727,148.11083376655978L152.72727272727272,148.23938928792876L178.1818181818182,148.37783386558294L203.63636363636365,148.6621387079358L229.0909090909091,148.40749992926916L254.54545454545453,148.8623887822032" style="fill: none;" fill="none"></path></g></g></g></g></g></g><g transform="translate(50, 178)" clip-path="url(#clip_1)"><clipPath id="clip_1"><rect width="280" height="22"></rect></clipPath><g><g><line x1="0" y1="0" x2="0" y2="5" style="visibility: inherit;" fill="rgb(0, 0, 0)" stroke="rgb(204, 204, 204)" stroke-width="1px"></line><line x1="25.454545454545457" y1="0" x2="25.454545454545457" y2="5" style="visibility: inherit;" fill="rgb(0, 0, 0)" stroke="rgb(204, 204, 204)" stroke-width="1px"></line><line x1="50.909090909090914" y1="0" x2="50.909090909090914" y2="5" style="visibility: inherit;" fill="rgb(0, 0, 0)" stroke="rgb(204, 204, 204)" stroke-width="1px"></line><line x1="76.36363636363636" y1="0" x2="76.36363636363636" y2="5" style="visibility: inherit;" fill="rgb(0, 0, 0)" stroke="rgb(204, 204, 204)" stroke-width="1px"></line><line x1="101.81818181818183" y1="0" x2="101.81818181818183" y2="5" style="visibility: inherit;" fill="rgb(0, 0, 0)" stroke="rgb(204, 204, 204)" stroke-width="1px"></line><line x1="127.27272727272727" y1="0" x2="127.27272727272727" y2="5" style="visibility: inherit;" fill="rgb(0, 0, 0)" stroke="rgb(204, 204, 204)" stroke-width="1px"></line><line x1="152.72727272727272" y1="0" x2="152.72727272727272" y2="5" style="visibility: inherit;" fill="rgb(0, 0, 0)" stroke="rgb(204, 204, 204)" stroke-width="1px"></line><line x1="178.1818181818182" y1="0" x2="178.1818181818182" y2="5" style="visibility: inherit;" fill="rgb(0, 0, 0)" stroke="rgb(204, 204, 204)" stroke-width="1px"></line><line x1="203.63636363636365" y1="0" x2="203.63636363636365" y2="5" style="visibility: inherit;" fill="rgb(0, 0, 0)" stroke="rgb(204, 204, 204)" stroke-width="1px"></line><line x1="229.0909090909091" y1="0" x2="229.0909090909091" y2="5" style="visibility: inherit;" fill="rgb(0, 0, 0)" stroke="rgb(204, 204, 204)" stroke-width="1px"></line><line x1="254.54545454545453" y1="0" x2="254.54545454545453" y2="5" style="visibility: inherit;" fill="rgb(0, 0, 0)" stroke="rgb(204, 204, 204)" stroke-width="1px"></line><line x1="280" y1="0" x2="280" y2="5" style="visibility: inherit;" fill="rgb(0, 0, 0)" stroke="rgb(204, 204, 204)" stroke-width="1px"></line></g><g transform="translate(0, 8)"><text x="0" y="0" dx="0em" dy="0.95em" style="text-anchor: middle; visibility: hidden; font-family: &quot;Helvetica Neue&quot;, sans-serif; font-size: 12px; font-weight: 200;" fill="rgb(50, 49, 63)" stroke="none" stroke-width="1px">-1</text><text x="25.454545454545457" y="0" dx="0em" dy="0.95em" style="text-anchor: middle; visibility: inherit; font-family: &quot;Helvetica Neue&quot;, sans-serif; font-size: 12px; font-weight: 200;" fill="rgb(50, 49, 63)" stroke="none" stroke-width="1px">0</text><text x="50.909090909090914" y="0" dx="0em" dy="0.95em" style="text-anchor: middle; visibility: inherit; font-family: &quot;Helvetica Neue&quot;, sans-serif; font-size: 12px; font-weight: 200;" fill="rgb(50, 49, 63)" stroke="none" stroke-width="1px">1</text><text x="76.36363636363636" y="0" dx="0em" dy="0.95em" style="text-anchor: middle; visibility: inherit; font-family: &quot;Helvetica Neue&quot;, sans-serif; font-size: 12px; font-weight: 200;" fill="rgb(50, 49, 63)" stroke="none" stroke-width="1px">2</text><text x="101.81818181818183" y="0" dx="0em" dy="0.95em" style="text-anchor: middle; visibility: inherit; font-family: &quot;Helvetica Neue&quot;, sans-serif; font-size: 12px; font-weight: 200;" fill="rgb(50, 49, 63)" stroke="none" stroke-width="1px">3</text><text x="127.27272727272727" y="0" dx="0em" dy="0.95em" style="text-anchor: middle; visibility: inherit; font-family: &quot;Helvetica Neue&quot;, sans-serif; font-size: 12px; font-weight: 200;" fill="rgb(50, 49, 63)" stroke="none" stroke-width="1px">4</text><text x="152.72727272727272" y="0" dx="0em" dy="0.95em" style="text-anchor: middle; visibility: inherit; font-family: &quot;Helvetica Neue&quot;, sans-serif; font-size: 12px; font-weight: 200;" fill="rgb(50, 49, 63)" stroke="none" stroke-width="1px">5</text><text x="178.1818181818182" y="0" dx="0em" dy="0.95em" style="text-anchor: middle; visibility: inherit; font-family: &quot;Helvetica Neue&quot;, sans-serif; font-size: 12px; font-weight: 200;" fill="rgb(50, 49, 63)" stroke="none" stroke-width="1px">6</text><text x="203.63636363636365" y="0" dx="0em" dy="0.95em" style="text-anchor: middle; visibility: inherit; font-family: &quot;Helvetica Neue&quot;, sans-serif; font-size: 12px; font-weight: 200;" fill="rgb(50, 49, 63)" stroke="none" stroke-width="1px">7</text><text x="229.0909090909091" y="0" dx="0em" dy="0.95em" style="text-anchor: middle; visibility: inherit; font-family: &quot;Helvetica Neue&quot;, sans-serif; font-size: 12px; font-weight: 200;" fill="rgb(50, 49, 63)" stroke="none" stroke-width="1px">8</text><text x="254.54545454545453" y="0" dx="0em" dy="0.95em" style="text-anchor: middle; visibility: inherit; font-family: &quot;Helvetica Neue&quot;, sans-serif; font-size: 12px; font-weight: 200;" fill="rgb(50, 49, 63)" stroke="none" stroke-width="1px">9</text><text x="280" y="0" dx="0em" dy="0.95em" style="text-anchor: middle; visibility: hidden; font-family: &quot;Helvetica Neue&quot;, sans-serif; font-size: 12px; font-weight: 200;" fill="rgb(50, 49, 63)" stroke="none" stroke-width="1px">10</text></g><line x1="0" y1="0" x2="280" y2="0" fill="rgb(0, 0, 0)" stroke="rgb(204, 204, 204)" stroke-width="1px"></line></g></g></g></g></svg>