<svg viewBox="0 0 330 200" xmlns="http://www.w3.org/2000/svg"><g><g><g><g><g><line x1="70" y1="178" x2="65" y2="178" style="visibility: inherit;" fill="rgb(0, 0, 0)" stroke="rgb(204, 204, 204)" stroke-width="1px"></line><line x1="70" y1="158.22222222222223" x2="65" y2="158.22222222222223" style="visibility: inherit;" fill="rgb(0, 0, 0)" stroke="rgb(204, 204, 204)" stroke-width="1px"></line><line x1="70" y1="138.44444444444446" x2="65" y2="138.44444444444446" style="visibility: inherit;" fill="rgb(0, 0, 0)" stroke="rgb(204, 204, 204)" stroke-width="1px"></line><line x1="70" y1="118.66666666666667" x2="65" y2="118.66666666666667" style="visibility: inherit;" fill="rgb(0, 0, 0)" stroke="rgb(204, 204, 204)" stroke-width="1px"></line><line x1="70" y1="98.8888888888889" x2="65" y2="98.8888888888889" style="visibility: inherit;" fill="rgb(0, 0, 0)" stroke="rgb(204, 204, 204)" stroke-width="1px"></line><line x1="70" y1="79.1111111111111" x2="65" y2="79.1111111111111" style="visibility: inherit;" fill="rgb(0, 0, 0)" stroke="rgb(204, 204, 204)" stroke-width="1px"></line><line x1="70" y1="59.33333333333334" x2="65" y2="59.33333333333334" style="visibility: inherit;" fill="rgb(0, 0, 0)" stroke="rgb(204, 204, 204)" stroke-width="1px"></line><line x1="70" y1="39.55555555555554" x2="65" y2="39.55555555555554" style="visibility: inherit;" fill="rgb(0, 0, 0)" stroke="rgb(204, 204, 204)" stroke-width="1px"></line><line x1="70" y1="19.7777777777778" x2="65" y2="19.7777777777778" style="visibility: inherit;" fill="rgb(0, 0, 0)" stroke="rgb(204, 204, 204)" stroke-width="1px"></line><line x1="70" y1="0" x2="65" y2="0" style="visibility: inherit;" fill="rgb(0, 0, 0)" stroke="rgb(204, 204, 204)" stroke-width="1px"></line></g><g transform="translate(60, 0)"><text x="0" y="178" dx="0em" dy="0.3em" style="text-anchor: end; visibility: hidden; font-family: &quot;Helvetica Neue&quot;, sans-serif; font-size: 12px; font-weight: 200;" fill="rgb(50, 49, 63)" stroke="none" stroke-width="1px">-2e+4</text><text x="0" y="158.22222222222223" dx="0em" dy="0.3em" style="text-anchor: end; visibility: inherit; font-family: &quot;Helvetica Neue&quot;, sans-serif; font-size: 12px; font-weight: 200;" fill="rgb(50, 49, 63)" stroke="none" stroke-width="1px">0</text><text x="0" y="138.44444444444446" dx="0em" dy="0.3em" style="text-anchor: end; visibility: hidden; font-family: &quot;Helvetica Neue&quot;, sans-serif; font-size: 12px; font-weight: 200;" fill="rgb(50, 49, 63)" stroke="none" stroke-width="1px">2e+4</text><text x="0" y="118.66666666666667" dx="0em" dy="0.3em" style="text-anchor: end; visibility: inherit; font-family: &quot;Helvetica Neue&quot;, sans-serif; font-size: 12px; font-weight: 200;" fill="rgb(50, 49, 63)" stroke="none" stroke-width="1px">4e+4</text><text x="0" y="98.8888888888889" dx="0em" dy="0.3em" style="text-anchor: end; visibility: hidden; font-family: &quot;Helvetica Neue&quot;, sans-serif; font-size: 12px; font-weight: 200;" fill="rgb(50, 49, 63)" stroke="none" stroke-width="1px">6e+4</text><text x="0" y="79.1111111111111" dx="0em" dy="0.3em" style="text-anchor: end; visibility: inherit; font-family: &quot;Helvetica Neue&quot;, sans-serif; font-size: 12px; font-weight: 200;" fill="rgb(50, 49, 63)" stroke="none" stroke-width="1px">8e+4</text><text x="0" y="59.33333333333334" dx="0em" dy="0.3em" style="text-anchor: end; visibility: hidden; font-family: &quot;Helvetica Neue&quot;, sans-serif; font-size: 12px; font-weight: 200;" fill="rgb(50, 49, 63)" stroke="none" stroke-width="1px">1e+5</text><text x="0" y="39.55555555555554" dx="0em" dy="0.3em" style="text-anchor: end; visibility: inherit; font-family: &quot;Helvetica Neue&quot;, sans-serif; font-size: 12px; font-weight: 200;" fill="rgb(50, 49, 63)" stroke="none" stroke-width="1px">1.2e+5</text><text x="0" y="19.7777777777778" dx="0em" dy="0.3em" style="text-anchor: end; visibility: hidden; font-family: &quot;Helvetica Neue&quot;, sans-serif; font-size: 12px; font-weight: 200;" fill="rgb(50, 49, 63)" stroke="none" stroke-width="1px">1.4e+5</text><text x="0" y="0" dx="0em" dy="0.3em" style="text-anchor: end; visibility: hidden; font-family: &quot;Helvetica Neue&quot;, sans-serif; font-size: 12px; font-weight: 200;" fill="rgb(50, 49, 63)" stroke="none" stroke-width="1px">1.6e+5</text></g><line x1="70" y1="0" x2="70" y2="178" fill="rgb(0, 0, 0)" stroke="rgb(204, 204, 204)" stroke-width="1px"></line></g></g><g transform="translate(70, 0)" clip-path="url(#clip_0)"><clipPath id="clip_0"><rect width="260" height="178"></rect></clipPath><g><g><g><line x1="0" y1="0" x2="0" y2="178" fill="rgb(0, 0, 0)" stroke="rgb(60, 60, 60)" stroke-width="1px" opacity="0.25"></line><line x1="23.636363636363637" y1="0" x2="23.636363636363637" y2="178" fill="rgb(0, 0, 0)" stroke="rgb(60, 60, 60)" stroke-width="1px" opacity="0.25"></line><line x1="47.27272727272727" y1="0" x2="47.27272727272727" y2="178" fill="rgb(0, 0, 0)" stroke="rgb(60, 60, 60)" stroke-width="1px" opacity="0.25"></line><line x1="70.9090909090909" y1="0" x2="70.9090909090909" y2="178" fill="rgb(0, 0, 0)" stroke="rgb(60, 60, 60)" stroke-width="1px" opacity="0.25"></line><line x1="94.54545454545455" y1="0" x2="94.54545454545455" y2="178" fill="rgb(0, 0, 0)" stroke="rgb(60, 60, 60)" stroke-width="1px" opacity="0.25"></line><line x1="118.18181818181817" y1="0" x2="118.18181818181817" y2="178" fill="rgb(0, 0, 0)" stroke="rgb(60, 60, 60)" stroke-width="1px" opacity="0.25"></line><line x1="141.8181818181818" y1="0" x2="141.8181818181818" y2="178" fill="rgb(0, 0, 0)" stroke="rgb(60, 60, 60)" stroke-width="1px" opacity="0.25"></line><line x1="165.45454545454544" y1="0" x2="165.45454545454544" y2="178" fill="rgb(0, 0, 0)" stroke="rgb(60, 60, 60)" stroke-width="1px" opacity="0.25"></line><line x1="189.0909090909091" y1="0" x2="189.0909090909091" y2="178" fill="rgb(0, 0, 0)" stroke="rgb(60, 60, 60)" stroke-width="1px" opacity="0.25"></line><line x1="212.72727272727275" y1="0" x2="212.72727272727275" y2="178" fill="rgb(0, 0, 0)" stroke="rgb(60, 60, 60)" stroke-width="1px" opacity="0.25"></line><line x1="236.36363636363635" y1="0" x2="236.36363636363635" y2="178" fill="rgb(0, 0, 0)" stroke="rgb(60, 60, 60)" stroke-width="1px" opacity="0.25"></line><line x1="260" y1="0" x2="260" y2="178" fill="rgb(0, 0, 0)" stroke="rgb(60, 60, 60)" stroke-width="1px" opacity="0.25"></line></g><g><line x1="0" y1="178" x2="260" y2="178" fill="rgb(0, 0, 0)" stroke="rgb(60, 60, 60)" stroke-width="1px" opacity="0.25"></line><line x1="0" y1="158.22222222222223" x2="260" y2="158.22222222222223" fill="rgb(0, 0, 0)" stroke="rgb(60, 60, 60)" stroke-width="1px" opacity="0.25"></line><line x1="0" y1="138.44444444444446" x2="260" y2="138.44444444444446" fill="rgb(0, 0, 0)" stroke="rgb(60, 60, 60)" stroke-width="1px" opacity="0.25"></line><line x1="0" y1="118.66666666666667" x2="260" y2="118.66666666666667" fill="rgb(0, 0, 0)" stroke="rgb(60, 60, 60)" stroke-width="1px" opacity="0.25"></line><line x1="0" y1="98.8888888888889" x2="260" y2="98.8888888888889" fill="rgb(0, 0, 0)" stroke="rgb(60, 60, 60)" stroke-width="1px" opacity="0.25"></line><line x1="0" y1="79.1111111111111" x2="260" y2="79.1111111111111" fill="rgb(0, 0, 0)" stroke="rgb(60, 60, 60)" stroke-width="1px" opacity="0.25"></line><line x1="0" y1="59.33333333333334" x2="260" y2="59.33333333333334" fill="rgb(0, 0, 0)" stroke="rgb(60, 60, 60)" stroke-width="1px" opacity="0.25"></line><line x1="0" y1="39.55555555555554" x2="260" y2="39.55555555555554" fill="rgb(0, 0, 0)" stroke="rgb(60, 60, 60)" stroke-width="1px" opacity="0.25"></line><line x1="0" y1="19.7777777777778" x2="260" y2="19.7777777777778" fill="rgb(0, 0, 0)" stroke="rgb(60, 60, 60)" stroke-width="1px" opacity="0.25"></line><line x1="0" y1="0" x2="260" y2="0" fill="rgb(0, 0, 0)" stroke="rgb(60, 60, 60)" stroke-width="1px" opacity="0.25"></line></g></g></g><g><g><line x1="0" y1="158.22222222222223" x2="260" y2="158.22222222222223" fill="rgb(0, 0, 0)" stroke="rgb(153, 153, 153)" stroke-width="1.5px"></line></g></g><g><g><line x1="23.636363636363637" y1="0" x2="23.636363636363637" y2="178" fill="rgb(0, 0, 0)" stroke="rgb(153, 153, 153)" stroke-width="1.5px"></line></g></g><g><g><g><g><g><path stroke="rgb(238, 51, 119)" stroke-width="2px" d="M23.636363636363637,21.412812847222227L47.27272727272727,21.417409635416675L70.9090909090909,21.422458928571444L94.54545454545455,21.42794583524818L118.18181818181817,21.43388088566968L141.8181818181818,21.440023525167987L165.45454545454544,21.44648349456682L189.0909090909091,21.45317110344436L212.72727272727275,21.46007045552838L236.36363636363635,21.467087829695203" style="fill: none;" fill="none"></path></g><g><path stroke="rgb(51, 187, 238)" stroke-width="2px" d="M23.636363636363637,21.39261788194446L47.27272727272727,21.403066883680566L70.9090909090909,21.414677104591846L94.54545454545455,21.42741134216709L118.18181818181817,21.441050587458562L141.8181818181818,21.455471945348847L165.45454545454544,21.470682507261955L189.0909090909091,21.486333280018272L212.72727272727275,21.502415371776067L236.36363636363635,21.518818895009048" style="fill: none;" fill="none"></path></g><g><path stroke="rgb(204, 51, 17)" stroke-width="2px" d="M23.636363636363637,21.58679548611113L47.27272727272727,21.680112217881913L70.9090909090909,21.800275343679118L94.54545454545455,21.95788359694137L118.18181818181817,22.17400273512797L141.8181818181818,22.484523389971372L165.45454545454544,22.925093996879923L189.0909090909091,23.527321931541678L212.72727272727275,24.31575969782628L236.36363636363635,25.297002420993323" style="fill: none;" fill="none"></path></g><g><path stroke="rgb(0, 119, 187)" stroke-width="2px" d="M23.636363636363637,21.499649652777777L47.27272727272727,21.610938281250014L70.9090909090909,21.746898678429687L94.54545454545455,21.91516164279517L118.18181818181817,22.128405268332187L141.8181818181818,22.396520614477993L165.45454545454544,22.733017331518283L189.0909090909091,23.14991122658668L212.72727272727275,23.6703021188319L236.36363636363635,24.330131143984488" style="fill: none;" fill="none"></path></g><g><path stroke="rgb(255, 112, 67)" stroke-width="2px" d="M23.636363636363637,23.280947569444436L47.27272727272727,29.238496126302095L70.9090909090909,43.2299913796769L94.54545454545455,59.52318852507149L118.18181818181817,72.9158838613352L141.8181818181818,82.84873019900361L165.45454545454544,90.05002450430597L189.0909090909091,95.28175042065065L212.72727272727275,99.13455700618398L236.36363636363635,102.03416838169224" style="fill: none;" fill="none"></path></g><g><path stroke="rgb(187, 187, 187)" stroke-width="2px" d="M23.636363636363637,23.45211805555556L47.27272727272727,31.455034559461808L70.9090909090909,47.32052411954365L94.54545454545455,63.29023903920293L118.18181818181817,75.87931858211168L141.8181818181818,85.14862002458946L165.45454545454544,91.89203449684648L189.0909090909091,96.85602917755985L212.72727272727275,100.55807827076318L236.36363636363635,103.37094318023146" style="fill: none;" fill="none"></path></g><g><path stroke="rgb(0, 153, 136)" stroke-width="2px" d="M23.636363636363637,58.77265651041668L47.27272727272727,85.23851244032119L70.9090909090909,96.01778638215704L94.54545454545455,102.1105202017591L118.18181818181817,106.15249434652465L141.8181818181818,109.1103399714467L165.45454545454544,111.40216405266239L189.0909090909091,113.23963427827992L212.72727272727275,114.74772489575128L236.36363636363635,116.00712431497783" style="fill: none;" fill="none"></path></g><g><path stroke="rgb(238, 51, 119)" stroke-width="2px" d="M23.636363636363637,51.63992456597224L47.27272727272727,82.59586719292535L70.9090909090909,96.04679368445294L94.54545454545455,103.4265935711231L118.18181818181817,108.01433672384026L141.8181818181818,111.11232423985116L165.45454545454544,113.35660781147348L189.0909090909091,115.06516917920862L212.72727272727275,116.42676927155159L236.36363636363635,117.54464509723985" style="fill: none;" fill="none"></path></g><g><path stroke="rgb(51, 187, 238)" stroke-width="2px" d="M23.636363636363637,21.498753472222205L47.27272727272727,21.642209960937492L70.9090909090909,21.810485243055552L94.54545454545455,22.013547452639898L118.18181818181817,22.260598087265805L141.8181818181818,22.564918547181776L165.45454545454544,22.94218273610818L189.0909090909091,23.39603285871806L212.72727272727275,23.93830231978734L236.36363636363635,24.589328104171642" style="fill: none;" fill="none"></path></g><g><path stroke="rgb(204, 51, 17)" stroke-width="2px" d="M23.636363636363637,21.489513541666668L47.27272727272727,21.578494227430554L70.9090909090909,21.68478756377553L94.54545454545455,21.816501002731826L118.18181818181817,21.977995798032822L141.8181818181818,22.172907166400023L165.45454545454544,22.411946710556634L189.0909090909091,22.707250354700733L212.72727272727275,23.071395863334004L236.36363636363635,23.522746803427395" style="fill: none;" fill="none"></path></g><g><path stroke="rgb(0, 119, 187)" stroke-width="2px" d="M23.636363636363637,22.331629687499998L47.27272727272727,27.55685483940968L70.9090909090909,45.3781566680839L94.54545454545455,65.52929914981615L118.18181818181817,80.48299235400282L141.8181818181818,91.03006692861594L165.45454545454544,98.34330988434164L189.0909090909091,103.46489023727685L212.72727272727275,107.15070599951889L236.36363636363635,109.90803849602487" style="fill: none;" fill="none"></path></g><g><path stroke="rgb(255, 112, 67)" stroke-width="2px" d="M23.636363636363637,22.311790104166676L47.27272727272727,26.617971473524307L70.9090909090909,39.70127586982707L94.54545454545455,57.952008450457L118.18181818181817,74.07637719947567L141.8181818181818,86.3100819258724L165.45454545454544,95.1267378982347L189.0909090909091,101.32496341462462L212.72727272727275,105.71927715539398L236.36363636363635,108.93164509752295" style="fill: none;" fill="none"></path></g><g><path stroke="rgb(187, 187, 187)" stroke-width="2px" d="M23.636363636363637,76.79545008680556L47.27272727272727,98.40737532552083L70.9090909090909,107.03258991461169L94.54545454545455,111.93292220451006L118.18181818181817,115.16120689284907L141.8181818181818,117.48260053949281L165.45454545454544,119.27890134363656L189.0909090909091,120.76312448258273L212.72727272727275,122.05367822351687L236.36363636363635,123.21079377771872" style="fill: none;" fill="none"></path></g><g><path stroke="rgb(0, 153, 136)" stroke-width="2px" d="M23.636363636363637,72.93412482638888L47.27272727272727,96.91584406467014L70.9090909090909,106.64029539044785L94.54545454545455,112.23601082628039L118.18181818181817,115.88945919659983L141.8181818181818,118.49661605253601L165.45454545454544,120.4029855152977L189.0909090909091,121.88237796310139L212.72727272727275,123.07796482701136L236.36363636363635,124.09136074994129" style="fill: none;" fill="none"></path></g><g><path stroke="rgb(238, 51, 119)" stroke-width="2px" d="M23.636363636363637,106.82039969618056L47.27272727272727,116.26888537326388L70.9090909090909,121.18803309550383L94.54545454545455,124.55534363279654L118.18181818181817,127.10112930327547L141.8181818181818,129.15712208537352L165.45454545454544,130.89117317941643L189.0909090909091,132.37143262378567L212.72727272727275,133.63292521274192L236.36363636363635,134.71284498084097" style="fill: none;" fill="none"></path></g><g><path stroke="rgb(51, 187, 238)" stroke-width="2px" d="M23.636363636363637,105.60756996527778L47.27272727272727,115.9660434624566L70.9090909090909,121.22158531347435L94.54545454545455,124.76689770132825L118.18181818181817,127.41628401514248L141.8181818181818,129.58383897663265L165.45454545454544,131.3416830904074L189.0909090909091,132.79534370453277L212.72727272727275,134.01372965917568L236.36363636363635,135.01341380534137" style="fill: none;" fill="none"></path></g><g><path stroke="rgb(204, 51, 17)" stroke-width="2px" d="M23.636363636363637,21.72476093749998L47.27272727272727,22.392647222222223L70.9090909090909,24.053348309948973L94.54545454545455,28.17407195829506L118.18181818181817,36.699121702834645L141.8181818181818,50.148589444197356L165.45454545454544,65.35066175918641L189.0909090909091,78.66003833509212L212.72727272727275,89.01793140345991L236.36363636363635,96.72143181044063" style="fill: none;" fill="none"></path></g><g><path stroke="rgb(0, 119, 187)" stroke-width="2px" d="M23.636363636363637,22.432341840277758L47.27272727272727,25.164688194444466L70.9090909090909,31.253359227962022L94.54545454545455,42.62852604517721L118.18181818181817,58.605059176750814L141.8181818181818,73.48139215585701L165.45454545454544,84.42908278822262L189.0909090909091,92.30611509567244L212.72727272727275,98.0979044147348L236.36363636363635,102.51074079965855" style="fill: none;" fill="none"></path></g><g><path stroke="rgb(255, 112, 67)" stroke-width="2px" d="M23.636363636363637,70.25681631944445L47.27272727272727,95.07345377061633L70.9090909090909,105.58028809435234L94.54545454545455,112.09013119622524L118.18181818181817,116.61120359194882L141.8181818181818,119.92471614693471L165.45454545454544,122.46925330822239L189.0909090909091,124.5129430201588L212.72727272727275,126.2012458831601L236.36363636363635,127.62953840854857" style="fill: none;" fill="none"></path></g><g><path stroke="rgb(187, 187, 187)" stroke-width="2px" d="M23.636363636363637,60.93717977430556L47.27272727272727,94.0699768391927L70.9090909090909,107.50815544217687L94.54545454545455,114.94997191648795L118.18181818181817,119.83535040701022L141.8181818181818,123.21136577521102L165.45454545454544,125.76586196094033L189.0909090909091,127.86761092772628L212.72727272727275,129.5422540558506L236.36363636363635,130.92756175002035" style="fill: none;" fill="none"></path></g><g><path stroke="rgb(0, 153, 136)" stroke-width="2px" d="M23.636363636363637,113.60540199652779L47.27272727272727,122.73863829752605L70.9090909090909,127.61814872360404L94.54545454545455,131.0211502751768L118.18181818181817,133.55005898295937L141.8181818181818,135.48454162767234L165.45454545454544,136.99930585942073L189.0909090909091,138.20758227733077L212.72727272727275,139.2092332226934L236.36363636363635,140.0422944889611" style="fill: none;" fill="none"></path></g><g><path stroke="rgb(238, 51, 119)" stroke-width="2px" d="M23.636363636363637,110.47075555555556L47.27272727272727,120.98265893012153L70.9090909090909,126.58390910173966L94.54545454545455,130.3330592828489L118.18181818181817,133.05316857748826L141.8181818181818,135.09964099011245L165.45454545454544,136.58438679363746L189.0909090909091,137.89326540344166L212.72727272727275,138.9861845994752L236.36363636363635,139.9043040389998" style="fill: none;" fill="none"></path></g><g><path stroke="rgb(51, 187, 238)" stroke-width="2px" d="M23.636363636363637,126.01137428385417L47.27272727272727,132.46647567003038L70.9090909090909,135.78383676038123L94.54545454545455,137.88001373642066L118.18181818181817,139.43038796325914L141.8181818181818,140.61612884516677L165.45454545454544,141.6339067205333L189.0909090909091,142.4549278408437L212.72727272727275,143.15772890767988L236.36363636363635,143.77626599996668" style="fill: none;" fill="none"></path></g><g><path stroke="rgb(204, 51, 17)" stroke-width="2px" d="M23.636363636363637,122.58841844618055L47.27272727272727,129.40435442708332L70.9090909090909,133.09329961778982L94.54545454545455,135.39831546710644L118.18181818181817,137.10271456976432L141.8181818181818,138.4062378329479L165.45454545454544,139.44381289184014L189.0909090909091,140.2934553759319L212.72727272727275,141.02260932538505L236.36363636363635,141.662367160662" style="fill: none;" fill="none"></path></g><g><path stroke="rgb(0, 119, 187)" stroke-width="2px" d="M23.636363636363637,32.04988116319444L47.27272727272727,62.46507587890625L70.9090909090909,82.47479151874293L94.54545454545455,94.74950428267336L118.18181818181817,103.19501591903048L141.8181818181818,109.36304677908616L165.45454545454544,114.08335724495345L189.0909090909091,117.72842286907193L212.72727272727275,120.5734390967676L236.36363636363635,122.85242315176876" style="fill: none;" fill="none"></path></g><g><path stroke="rgb(255, 112, 67)" stroke-width="2px" d="M23.636363636363637,28.32588784722222L47.27272727272727,52.19725036892362L70.9090909090909,70.559017736678L94.54545454545455,83.34509384925195L118.18181818181817,93.69182424573744L141.8181818181818,101.59716242934812L165.45454545454544,107.54593959038863L189.0909090909091,112.2348848025535L212.72727272727275,115.93655015702936L236.36363636363635,118.88875689695004" style="fill: none;" fill="none"></path></g><g><path stroke="rgb(187, 187, 187)" stroke-width="2px" d="M23.636363636363637,92.54547569444445L47.27272727272727,112.35126635742188L70.9090909090909,121.3057563996953L94.54545454545455,126.83124414341746L118.18181818181817,130.52976796019595L141.8181818181818,133.2312601731962L165.45454545454544,135.31370088176203L189.0909090909091,136.93499287686933L212.72727272727275,138.08692719148402L236.36363636363635,139.02896324528427" style="fill: none;" fill="none"></path></g><g><path stroke="rgb(0, 153, 136)" stroke-width="2px" d="M23.636363636363637,100.12201015625L47.27272727272727,115.59729075520832L70.9090909090909,123.45995466712726L94.54545454545455,128.1218366955327L118.18181818181817,131.41605001933698L141.8181818181818,133.74634673626903L165.45454545454544,135.54225547349048L189.0909090909091,136.9013748027945L212.72727272727275,138.0191798242732L236.36363636363635,138.88033975630984" style="fill: none;" fill="none"></path></g><g><path stroke="rgb(238, 51, 119)" stroke-width="2px" d="M23.636363636363637,126.46971076388888L47.27272727272727,132.15199403483072L70.9090909090909,134.87776376842405L94.54545454545455,136.50036280844694L118.18181818181817,137.69928440478859L141.8181818181818,138.5357770725584L165.45454545454544,139.08931011571528L189.0909090909091,139.52649768343323L212.72727272727275,140.0087163271934L236.36363636363635,140.28124469370292" style="fill: none;" fill="none"></path></g><g><path stroke="rgb(51, 187, 238)" stroke-width="2px" d="M23.636363636363637,125.25165073784723L47.27272727272727,131.93140566134983L70.9090909090909,134.77981315724207L94.54545454545455,136.31277515063317L118.18181818181817,137.48416628438488L141.8181818181818,138.42988582214872L165.45454545454544,139.00281841123737L189.0909090909091,139.52707710922917L212.72727272727275,139.8463863106971L236.36363636363635,140.20424627111436" style="fill: none;" fill="none"></path></g><g><path stroke="rgb(204, 51, 17)" stroke-width="2px" d="M23.636363636363637,122.44724683159723L47.27272727272727,125.01400378960503L70.9090909090909,125.69162048301091L94.54545454545455,126.57735344685074L118.18181818181817,126.93746953920166L141.8181818181818,127.13965295257769L165.45454545454544,127.66855873812834L189.0909090909091,127.77235553146707L212.72727272727275,126.99910891692699L236.36363636363635,126.59046473016326" style="fill: none;" fill="none"></path></g><g><path stroke="rgb(0, 119, 187)" stroke-width="2px" d="M23.636363636363637,120.37394856770834L47.27272727272727,123.74334361436632L70.9090909090909,125.45034590242346L94.54545454545455,126.3109016516193L118.18181818181817,126.64206160717083L141.8181818181818,127.05329858463998L165.45454545454544,127.1948962518091L189.0909090909091,127.0013249690714L212.72727272727275,126.85971768054323L236.36363636363635,127.25313550581963" style="fill: none;" fill="none"></path></g><g><path stroke="rgb(255, 112, 67)" stroke-width="2px" d="M94.54545454545455,-15.132425981668746L118.18181818181817,0.7723381775772964L141.8181818181818,9.48156605926087L165.45454545454544,14.460489430394233L189.0909090909091,17.360091039126416L212.72727272727275,19.0621967468021L236.36363636363635,20.077632304149517" style="fill: none;" fill="none"></path></g><g><path stroke="rgb(187, 187, 187)" stroke-width="2px" d="M118.18181818181817,-2.4330108219600675L141.8181818181818,7.638880152110147L165.45454545454544,13.379450087589703L189.0909090909091,16.721205446351576L212.72727272727275,18.68984575133794L236.36363636363635,19.849836121770238" style="fill: none;" fill="none"></path></g><g><path stroke="rgb(0, 153, 136)" stroke-width="2px" d="M23.636363636363637,-33.4528440972222L47.27272727272727,0.854164366319452L70.9090909090909,11.383050177154217L94.54545454545455,16.040353171594177L118.18181818181817,18.411465575723838L141.8181818181818,19.70980530903151L165.45454545454544,20.447563684386353L189.0909090909091,20.87572551863917L212.72727272727275,21.127130350990228L236.36363636363635,21.2756516789363" style="fill: none;" fill="none"></path></g><g><path stroke="rgb(238, 51, 119)" stroke-width="2px" d="M70.9090909090909,-7.959232412131513L94.54545454545455,5.580241432419342L118.18181818181817,12.48249259002236L141.8181818181818,16.275947427348143L165.45454545454544,18.4341826607955L189.0909090909091,19.672503351145963L212.72727272727275,20.408186207196593L236.36363636363635,20.84431843244036" style="fill: none;" fill="none"></path></g><g><path stroke="rgb(51, 187, 238)" stroke-width="2px" d="M23.636363636363637,6.480683333333332L47.27272727272727,15.648021332465277L70.9090909090909,18.450786011904768L94.54545454545455,19.685971987336615L118.18181818181817,20.31541093436755L141.8181818181818,20.659931119372118L165.45454545454544,20.855919751781272L189.0909090909091,20.96986619995485L212.72727272727275,21.036959266276796L236.36363636363635,21.076761087268494" style="fill: none;" fill="none"></path></g><g><path stroke="rgb(204, 51, 17)" stroke-width="2px" d="M23.636363636363637,16.993916493055565L47.27272727272727,19.628117556423575L70.9090909090909,20.423003812358274L94.54545454545455,20.771082923560044L118.18181818181817,20.929511824350357L141.8181818181818,21.03704455852241L165.45454545454544,21.108256462673495L189.0909090909091,21.122070977855884L212.72727272727275,21.161408322065483L236.36363636363635,21.161008338581013" style="fill: none;" fill="none"></path></g><g><path stroke="rgb(0, 119, 187)" stroke-width="2px" d="M23.636363636363637,19.378730208333337L47.27272727272727,19.968693207465293L70.9090909090909,20.149294125566882L94.54545454545455,20.228971001199966L118.18181818181817,20.26961118412177L141.8181818181818,20.291873797752345L165.45454545454544,20.304547462943077L189.0909090909091,20.311920722999247L212.72727272727275,20.316264612980007L236.36363636363635,20.3188427596327" style="fill: none;" fill="none"></path></g><g><path stroke="rgb(255, 112, 67)" stroke-width="2px" d="M23.636363636363637,20.205302256944435L47.27272727272727,20.18654813368056L70.9090909090909,20.199230491780042L94.54545454545455,20.197298778339473L118.18181818181817,20.229419773353783L141.8181818181818,20.216409218568202L165.45454545454544,20.24350408339336L189.0909090909091,20.218577105866473L212.72727272727275,20.221804131727765L236.36363636363635,20.20384618587184" style="fill: none;" fill="none"></path></g></g></g></g><g opacity="0.2"><g><g><g><path stroke="rgb(238, 51, 119)" stroke-width="2px" d="M23.636363636363637,21.412812847222227L47.27272727272727,21.420167708333338L70.9090909090909,21.427306249999987L94.54545454545455,21.434398437499993L118.18181818181817,21.44162968750001L141.8181818181818,21.448521006944446L165.45454545454544,21.455721354166656L189.0909090909091,21.462921701388893L212.72727272727275,21.470245659722224L236.36363636363635,21.477507812499994" style="fill: none;" fill="none"></path></g><g><path stroke="rgb(51, 187, 238)" stroke-width="2px" d="M23.636363636363637,21.39261788194446L47.27272727272727,21.4093362847222L70.9090909090909,21.425822916666647L94.54545454545455,21.442386805555543L118.18181818181817,21.458857986111127L141.8181818181818,21.475421874999995L165.45454545454544,21.492433854166677L189.0909090909091,21.509152256944446L212.72727272727275,21.526133333333348L236.36363636363635,21.543176215277782" style="fill: none;" fill="none"></path></g><g><path stroke="rgb(204, 51, 17)" stroke-width="2px" d="M23.636363636363637,21.58679548611113L47.27272727272727,21.736102256944434L70.9090909090909,21.915631944444442L94.54545454545455,22.143230902777788L118.18181818181817,22.456167881944424L141.8181818181818,22.914085243055553L165.45454545454544,23.55511701388889L189.0909090909091,24.40537604166667L212.72727272727275,25.478552256944425L236.36363636363635,26.754033506944438" style="fill: none;" fill="none"></path></g><g><path stroke="rgb(0, 119, 187)" stroke-width="2px" d="M23.636363636363637,21.499649652777777L47.27272727272727,21.677711458333334L70.9090909090909,21.87742065972222L94.54545454545455,22.113038888888894L118.18181818181817,22.406816145833346L141.8181818181818,22.767420659722205L165.45454545454544,23.21421302083334L189.0909090909091,23.757746527777783L212.72727272727275,24.437777604166655L236.36363636363635,25.309900347222225" style="fill: none;" fill="none"></path></g><g><path stroke="rgb(255, 112, 67)" stroke-width="2px" d="M23.636363636363637,23.280947569444436L47.27272727272727,32.81302526041668L70.9090909090909,56.661826822916666L94.54545454545455,78.68398836805555L118.18181818181817,90.4013868923611L141.8181818181818,96.58943250868056L165.45454545454544,100.34799058159722L189.0909090909091,102.90965703125L212.72727272727275,104.81669835069445L236.36363636363635,106.33975334201389" style="fill: none;" fill="none"></path></g><g><path stroke="rgb(187, 187, 187)" stroke-width="2px" d="M23.636363636363637,23.45211805555556L47.27272727272727,36.25678446180555L70.9090909090909,62.551394097222214L94.54545454545455,82.07062378472222L118.18181818181817,92.31562083333334L141.8181818181818,97.97140086805555L165.45454545454544,101.53522508680555L189.0909090909091,104.09358107638889L212.72727272727275,106.01788159722223L236.36363636363635,107.54771974826389" style="fill: none;" fill="none"></path></g><g><path stroke="rgb(0, 153, 136)" stroke-width="2px" d="M23.636363636363637,58.77265651041668L47.27272727272727,101.11802599826389L70.9090909090909,106.36588936631944L94.54545454545455,109.27557517361112L118.18181818181817,111.42969578993056L141.8181818181818,113.20210529513889L165.45454545454544,114.6795091579861L189.0909090909091,115.91868350694443L212.72727272727275,116.971865625L236.36363636363635,117.87718567708333" style="fill: none;" fill="none"></path></g><g><path stroke="rgb(238, 51, 119)" stroke-width="2px" d="M23.636363636363637,51.63992456597224L47.27272727272727,101.16943276909723L70.9090909090909,108.95968311631944L94.54545454545455,112.10523823784722L118.18181818181817,114.00409418402779L141.8181818181818,115.39795625L165.45454545454544,116.56596922743056L189.0909090909091,117.55626805555556L212.72727272727275,118.43486493055556L236.36363636363635,119.20456041666668" style="fill: none;" fill="none"></path></g><g><path stroke="rgb(51, 187, 238)" stroke-width="2px" d="M23.636363636363637,21.498753472222205L47.27272727272727,21.728283854166648L70.9090909090909,21.972029513888884L94.54545454545455,22.252348611111103L118.18181818181817,22.583147395833322L141.8181818181818,22.985903298611106L165.45454545454544,23.481676562500013L189.0909090909091,24.05775069444445L212.72727272727275,24.738044444444427L236.36363636363635,25.556025520833316" style="fill: none;" fill="none"></path></g><g><path stroke="rgb(204, 51, 17)" stroke-width="2px" d="M23.636363636363637,21.489513541666668L47.27272727272727,21.631882638888897L70.9090909090909,21.786829166666678L94.54545454545455,21.971396006944445L118.18181818181817,22.188843402777763L141.8181818181818,22.442539756944427L165.45454545454544,22.753777083333347L189.0909090909091,23.137805902777785L212.72727272727275,23.60843975694445L236.36363636363635,24.192950347222222" style="fill: none;" fill="none"></path></g><g><path stroke="rgb(0, 119, 187)" stroke-width="2px" d="M23.636363636363637,22.331629687499998L47.27272727272727,30.691989930555536L70.9090909090909,62.48660642361111L94.54545454545455,89.22704270833333L118.18181818181817,100.00653420138889L141.8181818181818,105.62046801215278L165.45454545454544,108.80136432291667L189.0909090909091,110.93220355902778L212.72727272727275,112.58656831597222L236.36363636363635,114.00235590277777" style="fill: none;" fill="none"></path></g><g><path stroke="rgb(255, 112, 67)" stroke-width="2px" d="M23.636363636363637,22.311790104166676L47.27272727272727,29.201680295138885L70.9090909090909,52.261248090277775L94.54545454545455,79.41486996527777L118.18181818181817,95.12835303819445L141.8181818181818,103.23369969618057L165.45454545454544,107.73469700520833L189.0909090909091,110.36203572048612L212.72727272727275,112.20003637152779L236.36363636363635,113.701637109375" style="fill: none;" fill="none"></path></g><g><path stroke="rgb(187, 187, 187)" stroke-width="2px" d="M23.636363636363637,76.79545008680556L47.27272727272727,111.37453046875001L70.9090909090909,115.31279592013888L94.54545454545455,117.69571297743056L118.18181818181817,119.37605538194444L141.8181818181818,120.69392365451388L165.45454545454544,121.847640234375L189.0909090909091,122.92713606770833L212.72727272727275,123.95699431423611L236.36363636363635,124.92897552083335" style="fill: none;" fill="none"></path></g><g><path stroke="rgb(0, 153, 136)" stroke-width="2px" d="M23.636363636363637,72.93412482638888L47.27272727272727,111.30487560763889L70.9090909090909,115.97576866319443L94.54545454545455,118.81657217881944L118.18181818181817,120.65940138888888L141.8181818181818,122.10325256076389L165.45454545454544,123.12912434895833L189.0909090909091,124.03934635416667L212.72727272727275,124.84122322048611L236.36363636363635,125.59613559027778" style="fill: none;" fill="none"></path></g><g><path stroke="rgb(238, 51, 119)" stroke-width="2px" d="M23.636363636363637,106.82039969618056L47.27272727272727,121.93797677951389L70.9090909090909,125.91041490885416L94.54545454545455,128.51530082465277L118.18181818181817,130.42490707465277L141.8181818181818,132.00130026041666L165.45454545454544,133.3708939887153L189.0909090909091,134.52966510416667L212.72727272727275,135.49338174913194L236.36363636363635,136.3163999782986" style="fill: none;" fill="none"></path></g><g><path stroke="rgb(51, 187, 238)" stroke-width="2px" d="M23.636363636363637,105.60756996527778L47.27272727272727,122.18112756076388L70.9090909090909,126.26690549045139L94.54545454545455,128.93618506944443L118.18181818181817,130.87532278645833L141.8181818181818,132.5823478081597L165.45454545454544,133.85542829861112L189.0909090909091,134.91479483506944L212.72727272727275,135.8106122829861L236.36363636363635,136.49782825520833" style="fill: none;" fill="none"></path></g><g><path stroke="rgb(204, 51, 17)" stroke-width="2px" d="M23.636363636363637,21.72476093749998L47.27272727272727,22.79337899305557L70.9090909090909,25.647621354166688L94.54545454545455,33.020042968750005L118.18181818181817,47.82942664930553L141.8181818181818,68.75404513888888L165.45454545454544,87.08986840277777L189.0909090909091,98.06523715277777L212.72727272727275,104.29381176215279L236.36363636363635,108.16023211805556" style="fill: none;" fill="none"></path></g><g><path stroke="rgb(0, 119, 187)" stroke-width="2px" d="M23.636363636363637,22.432341840277758L47.27272727272727,26.804096006944462L70.9090909090909,37.098483420138905L94.54545454545455,56.00572222222223L118.18181818181817,79.46402083333334L141.8181818181818,94.06071614583334L165.45454545454544,100.08445555555555L189.0909090909091,103.79090381944444L212.72727272727275,106.63966866319444L236.36363636363635,109.06328854166667" style="fill: none;" fill="none"></path></g><g><path stroke="rgb(255, 112, 67)" stroke-width="2px" d="M23.636363636363637,70.25681631944445L47.27272727272727,109.96343624131944L70.9090909090909,115.66684904513889L94.54545454545455,119.74570668402778L118.18181818181817,122.51391571180557L141.8181818181818,124.50849687499999L165.45454545454544,126.10798216145834L189.0909090909091,127.49266223958332L212.72727272727275,128.6911646701389L236.36363636363635,129.75038634982639" style="fill: none;" fill="none"></path></g><g><path stroke="rgb(187, 187, 187)" stroke-width="2px" d="M23.636363636363637,60.93717977430556L47.27272727272727,113.949655078125L70.9090909090909,120.40880690104167L94.54545454545455,123.70154809027778L118.18181818181817,126.21370056423612L141.8181818181818,127.88161039496528L165.45454545454544,129.41883237847222L189.0909090909091,130.93198109809026L212.72727272727275,132.01202738715278L236.36363636363635,132.9845822265625" style="fill: none;" fill="none"></path></g><g><path stroke="rgb(0, 153, 136)" stroke-width="2px" d="M23.636363636363637,113.60540199652777L47.27272727272727,128.218580078125L70.9090909090909,132.3024787326389L94.54545454545455,135.0230800998264L118.18181818181817,136.85180219184028L141.8181818181818,138.1606275390625L165.45454545454544,139.1654429470486L189.0909090909091,139.96926089409723L212.72727272727275,140.6864738064236L236.36363636363635,141.2792933810764" style="fill: none;" fill="none"></path></g><g><path stroke="rgb(238, 51, 119)" stroke-width="2px" d="M23.636363636363637,110.47075555555556L47.27272727272727,127.28980095486111L70.9090909090909,131.96110926649305L94.54545454545455,134.74205989583334L118.18181818181817,136.60454327256946L141.8181818181818,137.9306490668403L165.45454545454544,138.7075970486111L189.0909090909091,139.80162298177083L212.72727272727275,140.59802812499998L236.36363636363635,141.26760440538195" style="fill: none;" fill="none"></path></g><g><path stroke="rgb(51, 187, 238)" stroke-width="2px" d="M23.636363636363637,126.01137428385417L47.27272727272727,136.33953650173612L70.9090909090909,138.96850340711805L94.54545454545455,140.34511786024305L118.18181818181817,141.45455655381943L141.8181818181818,142.25643535156252L165.45454545454544,143.08934536675346L189.0909090909091,143.65198451605903L212.72727272727275,144.19422396918404L236.36363636363635,144.69472149522568" style="fill: none;" fill="none"></path></g><g><path stroke="rgb(204, 51, 17)" stroke-width="2px" d="M23.636363636363637,122.58841844618055L47.27272727272727,133.493916015625L70.9090909090909,136.63468700086804L94.54545454545455,138.10901410590276L118.18181818181817,139.32797803819443L141.8181818181818,140.20947977430555L165.45454545454544,140.92756182725694L189.0909090909091,141.53224227430556L212.72727272727275,142.0979697699653L236.36363636363635,142.6123329861111" style="fill: none;" fill="none"></path></g><g><path stroke="rgb(0, 119, 187)" stroke-width="2px" d="M23.636363636363637,32.04988116319444L47.27272727272727,80.71419270833334L70.9090909090909,101.6841185329861L94.54545454545455,109.18456649305556L118.18181818181817,114.22147591145833L141.8181818181818,117.89565394965277L165.45454545454544,120.83347673611111L189.0909090909091,123.04296354166667L212.72727272727275,124.76928541666666L236.36363636363635,126.23644887152778" style="fill: none;" fill="none"></path></g><g><path stroke="rgb(255, 112, 67)" stroke-width="2px" d="M23.636363636363637,28.32588784722222L47.27272727272727,66.52006788194444L70.9090909090909,88.18631440972221L94.54545454545455,98.3815193576389L118.18181818181817,107.20051545138888L141.8181818181818,112.53309105902778L165.45454545454544,116.05278611111112L189.0909090909091,119.07141193576389L212.72727272727275,121.39578754340278L236.36363636363635,123.27243984374999" style="fill: none;" fill="none"></path></g><g><path stroke="rgb(187, 187, 187)" stroke-width="2px" d="M23.636363636363637,92.54547569444445L47.27272727272727,124.23474075520834L70.9090909090909,129.90206684027777L94.54545454545455,133.3292177300347L118.18181818181817,135.35856065538195L141.8181818181818,136.9683964409722L165.45454545454544,138.2916244140625L189.0909090909091,139.2988521701389L212.72727272727275,139.78580655381944L236.36363636363635,140.42777699652777" style="fill: none;" fill="none"></path></g><g><path stroke="rgb(0, 153, 136)" stroke-width="2px" d="M23.636363636363637,100.12201015625L47.27272727272727,124.88245911458333L70.9090909090909,131.00811202256943L94.54545454545455,133.6042099609375L118.18181818181817,135.71697493489583L141.8181818181818,136.96998600260417L165.45454545454544,138.11043370225696L189.0909090909091,138.88298383246527L212.72727272727275,139.66772510850694L236.36363636363635,140.1590618923611" style="fill: none;" fill="none"></path></g><g><path stroke="rgb(238, 51, 119)" stroke-width="2px" d="M23.636363636363637,126.46971076388888L47.27272727272727,135.56136399739583L70.9090909090909,137.4945027126736L94.54545454545455,138.4085392795139L118.18181818181817,139.2645964409722L141.8181818181818,139.69294756944444L165.45454545454544,139.88087122395834L189.0909090909091,140.16392135416666L212.72727272727275,140.71989516059028L236.36363636363635,140.68591755642362" style="fill: none;" fill="none"></path></g><g><path stroke="rgb(51, 187, 238)" stroke-width="2px" d="M23.636363636363637,125.25165073784723L47.27272727272727,135.9392586154514L70.9090909090909,137.51428435329862L94.54545454545455,138.1155384548611L118.18181818181817,139.01353454861112L141.8181818181818,139.73815640190972L165.45454545454544,139.82212118055554L189.0909090909091,140.2914513237847L212.72727272727275,140.31730536024304L236.36363636363635,140.73562660590278" style="fill: none;" fill="none"></path></g><g><path stroke="rgb(204, 51, 17)" stroke-width="2px" d="M23.636363636363637,122.44724683159723L47.27272727272727,126.55405796440972L70.9090909090909,126.34213250868056L94.54545454545455,127.61897541232639L118.18181818181817,127.407637109375L141.8181818181818,127.41934539930554L165.45454545454544,128.42490247395835L189.0909090909091,127.92369225260417L212.72727272727275,125.85872035590278L236.36363636363635,125.98367573784722" style="fill: none;" fill="none"></path></g><g><path stroke="rgb(0, 119, 187)" stroke-width="2px" d="M23.636363636363637,120.37394856770834L47.27272727272727,125.76498064236111L70.9090909090909,127.08906809895834L94.54545454545455,127.32291521267362L118.18181818181817,127.07442404513888L141.8181818181818,127.62218736979166L165.45454545454544,127.3973831814236L189.0909090909091,126.71909618055555L212.72727272727275,126.65087443576388L236.36363636363635,127.83731512586806" style="fill: none;" fill="none"></path></g><g><path stroke="rgb(255, 112, 67)" stroke-width="2px" d="M23.636363636363637,-345.90449513888893L47.27272727272727,21.05514409722221L70.9090909090909,21.12608142361111L94.54545454545455,21.531711284722235L118.18181818181817,21.537598263888896L141.8181818181818,21.529563541666676L165.45454545454544,21.580429513888873L189.0909090909091,21.587738020833314L212.72727272727275,21.572472048611104L236.36363636363635,21.58543576388888" style="fill: none;" fill="none"></path></g><g><path stroke="rgb(187, 187, 187)" stroke-width="2px" d="M23.636363636363637,-403.40078194444436L47.27272727272727,20.765708680555548L70.9090909090909,21.412086631944447L94.54545454545455,21.51248975694446L118.18181818181817,21.569953472222238L141.8181818181818,21.571931250000006L165.45454545454544,21.588556944444463L189.0909090909091,21.593516840277772L212.72727272727275,21.593207812499998L236.36363636363635,21.57228663194445" style="fill: none;" fill="none"></path></g><g><path stroke="rgb(0, 153, 136)" stroke-width="2px" d="M23.636363636363637,-33.4528440972222L47.27272727272727,21.438369444444447L70.9090909090909,21.490780555555574L94.54545454545455,21.517341493055568L118.18181818181817,21.50718993055554L141.8181818181818,21.505876562499992L165.45454545454544,21.502569965277786L189.0909090909091,21.49998958333333L212.72727272727275,21.497903645833333L236.36363636363635,21.49618854166667" style="fill: none;" fill="none"></path></g><g><path stroke="rgb(238, 51, 119)" stroke-width="2px" d="M23.636363636363637,-138.74769340277777L47.27272727272727,21.45884253472221L70.9090909090909,21.473768576388892L94.54545454545455,21.5026626736111L118.18181818181817,21.49407170138889L141.8181818181818,21.523661111111124L165.45454545454544,21.5204935763889L189.0909090909091,21.47798680555556L212.72727272727275,21.49317552083332L236.36363636363635,21.49192395833333" style="fill: none;" fill="none"></path></g><g><path stroke="rgb(51, 187, 238)" stroke-width="2px" d="M23.636363636363637,6.480683333333332L47.27272727272727,21.148424131944438L70.9090909090909,21.141440104166662L94.54545454545455,21.13855069444446L118.18181818181817,21.137206423611104L141.8181818181818,21.136526562499995L165.45454545454544,21.13618663194444L189.0909090909091,21.136001215277787L212.72727272727275,21.135908506944446L236.36363636363635,21.135862152777776" style="fill: none;" fill="none"></path></g><g><path stroke="rgb(204, 51, 17)" stroke-width="2px" d="M23.636363636363637,16.993916493055565L47.27272727272727,21.208638194444433L70.9090909090909,21.186094618055563L94.54545454545455,21.180423958333336L118.18181818181817,21.136356597222232L141.8181818181818,21.18580104166668L165.45454545454544,21.210090624999992L189.0909090909091,21.142212673611112L212.72727272727275,21.2194232638889L236.36363636363635,21.16041440972222" style="fill: none;" fill="none"></path></g><g><path stroke="rgb(0, 119, 187)" stroke-width="2px" d="M23.636363636363637,19.378730208333337L47.27272727272727,20.322671006944432L70.9090909090909,20.322671006944432L94.54545454545455,20.322671006944432L118.18181818181817,20.322671006944432L141.8181818181818,20.322671006944432L165.45454545454544,20.322671006944432L189.0909090909091,20.322671006944432L212.72727272727275,20.322671006944432L236.36363636363635,20.322671006944432" style="fill: none;" fill="none"></path></g><g><path stroke="rgb(255, 112, 67)" stroke-width="2px" d="M23.636363636363637,20.205302256944435L47.27272727272727,20.175295659722224L70.9090909090909,20.211405555555558L94.54545454545455,20.195027083333343L118.18181818181817,20.27135694444445L141.8181818181818,20.1984109375L165.45454545454544,20.282250173611118L189.0909090909091,20.18223333333333L212.72727272727275,20.226563368055537L236.36363636363635,20.17718072916668" style="fill: none;" fill="none"></path></g></g></g></g></g></g><g transform="translate(70, 178)" clip-path="url(#clip_1)"><clipPath id="clip_1"><rect width="260" height="22"></rect></clipPath><g><g><line x1="0" y1="0" x2="0" y2="5" style="visibility: inherit;" fill="rgb(0, 0, 0)" stroke="rgb(204, 204, 204)" stroke-width="1px"></line><line x1="23.636363636363637" y1="0" x2="23.636363636363637" y2="5" style="visibility: inherit;" fill="rgb(0, 0, 0)" stroke="rgb(204, 204, 204)" stroke-width="1px"></line><line x1="47.27272727272727" y1="0" x2="47.27272727272727" y2="5" style="visibility: inherit;" fill="rgb(0, 0, 0)" stroke="rgb(204, 204, 204)" stroke-width="1px"></line><line x1="70.9090909090909" y1="0" x2="70.9090909090909" y2="5" style="visibility: inherit;" fill="rgb(0, 0, 0)" stroke="rgb(204, 204, 204)" stroke-width="1px"></line><line x1="94.54545454545455" y1="0" x2="94.54545454545455" y2="5" style="visibility: inherit;" fill="rgb(0, 0, 0)" stroke="rgb(204, 204, 204)" stroke-width="1px"></line><line x1="118.18181818181817" y1="0" x2="118.18181818181817" y2="5" style="visibility: inherit;" fill="rgb(0, 0, 0)" stroke="rgb(204, 204, 204)" stroke-width="1px"></line><line x1="141.8181818181818" y1="0" x2="141.8181818181818" y2="5" style="visibility: inherit;" fill="rgb(0, 0, 0)" stroke="rgb(204, 204, 204)" stroke-width="1px"></line><line x1="165.45454545454544" y1="0" x2="165.45454545454544" y2="5" style="visibility: inherit;" fill="rgb(0, 0, 0)" stroke="rgb(204, 204, 204)" stroke-width="1px"></line><line x1="189.0909090909091" y1="0" x2="189.0909090909091" y2="5" style="visibility: inherit;" fill="rgb(0, 0, 0)" stroke="rgb(204, 204, 204)" stroke-width="1px"></line><line x1="212.72727272727275" y1="0" x2="212.72727272727275" y2="5" style="visibility: inherit;" fill="rgb(0, 0, 0)" stroke="rgb(204, 204, 204)" stroke-width="1px"></line><line x1="236.36363636363635" y1="0" x2="236.36363636363635" y2="5" style="visibility: inherit;" fill="rgb(0, 0, 0)" stroke="rgb(204, 204, 204)" stroke-width="1px"></line><line x1="260" y1="0" x2="260" y2="5" style="visibility: inherit;" fill="rgb(0, 0, 0)" stroke="rgb(204, 204, 204)" stroke-width="1px"></line></g><g transform="translate(0, 8)"><text x="0" y="0" dx="0em" dy="0.95em" style="text-anchor: middle; visibility: hidden; font-family: &quot;Helvetica Neue&quot;, sans-serif; font-size: 12px; font-weight: 200;" fill="rgb(50, 49, 63)" stroke="none" stroke-width="1px">-1</text><text x="23.636363636363637" y="0" dx="0em" dy="0.95em" style="text-anchor: middle; visibility: inherit; font-family: &quot;Helvetica Neue&quot;, sans-serif; font-size: 12px; font-weight: 200;" fill="rgb(50, 49, 63)" stroke="none" stroke-width="1px">0</text><text x="47.27272727272727" y="0" dx="0em" dy="0.95em" style="text-anchor: middle; visibility: inherit; font-family: &quot;Helvetica Neue&quot;, sans-serif; font-size: 12px; font-weight: 200;" fill="rgb(50, 49, 63)" stroke="none" stroke-width="1px">1</text><text x="70.9090909090909" y="0" dx="0em" dy="0.95em" style="text-anchor: middle; visibility: inherit; font-family: &quot;Helvetica Neue&quot;, sans-serif; font-size: 12px; font-weight: 200;" fill="rgb(50, 49, 63)" stroke="none" stroke-width="1px">2</text><text x="94.54545454545455" y="0" dx="0em" dy="0.95em" style="text-anchor: middle; visibility: inherit; font-family: &quot;Helvetica Neue&quot;, sans-serif; font-size: 12px; font-weight: 200;" fill="rgb(50, 49, 63)" stroke="none" stroke-width="1px">3</text><text x="118.18181818181817" y="0" dx="0em" dy="0.95em" style="text-anchor: middle; visibility: inherit; font-family: &quot;Helvetica Neue&quot;, sans-serif; font-size: 12px; font-weight: 200;" fill="rgb(50, 49, 63)" stroke="none" stroke-width="1px">4</text><text x="141.8181818181818" y="0" dx="0em" dy="0.95em" style="text-anchor: middle; visibility: inherit; font-family: &quot;Helvetica Neue&quot;, sans-serif; font-size: 12px; font-weight: 200;" fill="rgb(50, 49, 63)" stroke="none" stroke-width="1px">5</text><text x="165.45454545454544" y="0" dx="0em" dy="0.95em" style="text-anchor: middle; visibility: inherit; font-family: &quot;Helvetica Neue&quot;, sans-serif; font-size: 12px; font-weight: 200;" fill="rgb(50, 49, 63)" stroke="none" stroke-width="1px">6</text><text x="189.0909090909091" y="0" dx="0em" dy="0.95em" style="text-anchor: middle; visibility: inherit; font-family: &quot;Helvetica Neue&quot;, sans-serif; font-size: 12px; font-weight: 200;" fill="rgb(50, 49, 63)" stroke="none" stroke-width="1px">7</text><text x="212.72727272727275" y="0" dx="0em" dy="0.95em" style="text-anchor: middle; visibility: inherit; font-family: &quot;Helvetica Neue&quot;, sans-serif; font-size: 12px; font-weight: 200;" fill="rgb(50, 49, 63)" stroke="none" stroke-width="1px">8</text><text x="236.36363636363635" y="0" dx="0em" dy="0.95em" style="text-anchor: middle; visibility: inherit; font-family: &quot;Helvetica Neue&quot;, sans-serif; font-size: 12px; font-weight: 200;" fill="rgb(50, 49, 63)" stroke="none" stroke-width="1px">9</text><text x="260" y="0" dx="0em" dy="0.95em" style="text-anchor: middle; visibility: hidden; font-family: &quot;Helvetica Neue&quot;, sans-serif; font-size: 12px; font-weight: 200;" fill="rgb(50, 49, 63)" stroke="none" stroke-width="1px">10</text></g><line x1="0" y1="0" x2="260" y2="0" fill="rgb(0, 0, 0)" stroke="rgb(204, 204, 204)" stroke-width="1px"></line></g></g></g></g></svg>